<?xml version="1.0" encoding="UTF-8" standalone="no"?>
<svg
   xmlns:dc="http://purl.org/dc/elements/1.1/"
   xmlns:cc="http://creativecommons.org/ns#"
   xmlns:rdf="http://www.w3.org/1999/02/22-rdf-syntax-ns#"
   xmlns:svg="http://www.w3.org/2000/svg"
   xmlns="http://www.w3.org/2000/svg"
   xmlns:sodipodi="http://sodipodi.sourceforge.net/DTD/sodipodi-0.dtd"
   xmlns:inkscape="http://www.inkscape.org/namespaces/inkscape"
   width="210mm"
   height="297mm"
   viewBox="0 0 210 297"
   version="1.1"
   id="svg8"
   inkscape:version="1.0.2-2 (e86c870879, 2021-01-15)"
   sodipodi:docname="Lógo.svg">
  <defs
     id="defs2">
    <rect
       x="34.017857"
       y="238.125"
       width="146.65476"
       height="37.797619"
       id="rect42" />
    <rect
       x="37.797619"
       y="238.88095"
       width="160.2619"
       height="38.553571"
       id="rect807" />
  </defs>
  <sodipodi:namedview
     id="base"
     pagecolor="#ffffff"
     bordercolor="#666666"
     borderopacity="1.0"
     inkscape:pageopacity="0.0"
     inkscape:pageshadow="2"
     inkscape:zoom="0.35"
     inkscape:cx="400"
     inkscape:cy="560"
     inkscape:document-units="mm"
     inkscape:current-layer="layer1"
     inkscape:document-rotation="0"
     showgrid="false"
     inkscape:window-width="1920"
     inkscape:window-height="1001"
     inkscape:window-x="-9"
     inkscape:window-y="-9"
     inkscape:window-maximized="1" />
  <metadata
     id="metadata5">
    <rdf:RDF>
      <cc:Work
         rdf:about="">
        <dc:format>image/svg+xml</dc:format>
        <dc:type
           rdf:resource="http://purl.org/dc/dcmitype/StillImage" />
        <dc:title></dc:title>
      </cc:Work>
    </rdf:RDF>
  </metadata>
  <g
     inkscape:label="Lag 1"
     inkscape:groupmode="layer"
     id="layer1">
    <g
       id="g168"
       transform="translate(-1.2709059,8.3154762)">
      <circle
         style="fill:#999999;stroke-width:0.264583"
         id="path10"
         cx="108.85715"
         cy="167.82143"
         r="49.892857" />
      <ellipse
         style="fill:#4d4d4d;stroke-width:0.264583"
         id="path12"
         cx="73.327385"
         cy="105.83332"
         rx="18.898809"
         ry="73.327377" />
      <ellipse
         style="fill:#4d4d4d;stroke-width:0.264583"
         id="path12-4"
         cx="143.63095"
         cy="105.83334"
         rx="18.898809"
         ry="73.327377" />
      <circle
         style="fill:#999999;stroke-width:0.264583"
         id="path10-3"
         cx="107.34524"
         cy="168.57738"
         r="49.892857" />
      <rect
         style="fill:#4d4d4d;stroke-width:0.255143"
         id="rect62"
         width="30.227684"
         height="8.3154764"
         x="72.581841"
         y="185.20833" />
      <rect
         style="fill:#4d4d4d;stroke-width:0.245814"
         id="rect62-2"
         width="28.057804"
         height="8.3154764"
         x="117.46304"
         y="184.83035" />
      <path
         sodipodi:type="star"
         style="fill:#cccccc;stroke-width:0.264583"
         id="path98"
         sodipodi:sides="5"
         sodipodi:cx="107.34524"
         sodipodi:cy="150.43452"
         sodipodi:r1="18.898809"
         sodipodi:r2="9.4494047"
         sodipodi:arg1="0.64350111"
         sodipodi:arg2="1.2718196"
         inkscape:flatsided="false"
         inkscape:rounded="0"
         inkscape:randomized="0"
         d="m 122.46429,161.77381 -12.3358,-2.30907 -8.89551,8.85289 -1.615914,-12.44559 -11.16846,-5.72444 11.337108,-5.38272 1.993026,-12.39078 8.62263,9.11887 12.40021,-1.93348 -6.00803,11.01849 z"
         inkscape:transform-center-x="2.1743863"
         inkscape:transform-center-y="-0.092718256"
         transform="matrix(1.2640652,0,0,1.0457311,-25.624065,-9.9652048)" />
    </g>
    <text
       xml:space="preserve"
       id="text805"
       style="line-height:1.25;font-family:sans-serif;font-size:10.58333333px;letter-spacing:0px;white-space:pre;shape-inside:url(#rect807);" />
    <a
       id="a75"
       transform="matrix(1.007017,0,0,1,-0.17391228,-2.1166667)">
      <g
         aria-label="Guðrún Gígja"
         id="text40"
         style="font-size:10.5833px;line-height:1.25;font-family:sans-serif;letter-spacing:0px;white-space:pre;shape-inside:url(#rect42);fill:#4d4d4d"
         transform="matrix(2.3654251,0,0,2.4814249,-57.087277,-357.26144)">
        <path
           d="m 41.469296,247.21203 q -0.630451,0.28938 -1.379756,0.50642 -0.744139,0.21188 -1.441768,0.21188 -0.899167,0 -1.648473,-0.24805 -0.749306,-0.24805 -1.276404,-0.74414 -0.532266,-0.50126 -0.821653,-1.25056 -0.289387,-0.75448 -0.289387,-1.76216 0,-1.84485 1.074867,-2.90938 1.080034,-1.0697 2.96105,-1.0697 0.656288,0 1.338415,0.1602 0.687294,0.15503 1.477941,0.53226 v 1.2144 h -0.09302 q -0.160196,-0.12403 -0.465086,-0.32556 -0.30489,-0.20154 -0.599445,-0.3359 -0.356566,-0.1602 -0.811317,-0.26355 -0.449584,-0.10852 -1.023191,-0.10852 -1.291906,0 -2.04638,0.83199 -0.749306,0.82682 -0.749306,2.24275 0,1.49344 0.78548,2.32543 0.785479,0.82682 2.139397,0.82682 0.496092,0 0.987017,-0.0982 0.496092,-0.0982 0.868161,-0.25322 v -1.88618 h -2.061883 v -0.89917 h 3.074738 z"
           id="path52"
           style="fill:#4d4d4d" />
        <path
           d="m 47.965003,247.78047 h -0.971514 v -0.64079 q -0.490925,0.38757 -0.940508,0.59428 -0.449584,0.2067 -0.992185,0.2067 -0.909502,0 -1.415929,-0.55293 -0.506428,-0.55811 -0.506428,-1.63297 v -3.74653 h 0.971514 v 3.28661 q 0,0.43924 0.04134,0.75447 0.04134,0.31006 0.175699,0.53227 0.139526,0.22737 0.361734,0.33072 0.222208,0.10336 0.645954,0.10336 0.377236,0 0.821652,-0.19637 0.449584,-0.19637 0.837156,-0.50126 v -4.3098 h 0.971514 z"
           id="path54"
           style="fill:#4d4d4d" />
        <path
           d="m 54.796605,244.48869 q 0,1.67431 -0.733803,2.56314 -0.733803,0.88883 -1.979202,0.88883 -1.183386,0 -1.901686,-0.69763 -0.713133,-0.69763 -0.713133,-1.9637 0,-1.16788 0.707965,-1.85001 0.707965,-0.68212 1.751826,-0.68212 0.558103,0 0.956011,0.13952 0.403075,0.13436 0.84749,0.40825 -0.165364,-0.57878 -0.516762,-1.13172 -0.346231,-0.55293 -0.795815,-0.93534 l -1.364253,0.83716 -0.341064,-0.50126 1.224728,-0.7338 q -0.434081,-0.34623 -0.80615,-0.55294 -0.372069,-0.21187 -0.852658,-0.45475 v -0.0827 h 1.52445 q 0.180867,0.12919 0.43408,0.30489 0.253214,0.17053 0.444416,0.30489 l 1.085202,-0.66146 0.341063,0.50126 -0.961178,0.56327 q 0.790646,0.75964 1.21956,1.68465 0.428913,0.91984 0.428913,2.05155 z m -1.498612,2.12389 q 0.253213,-0.30489 0.387572,-0.73897 0.134358,-0.43925 0.134358,-1.21439 0,-0.16537 -0.01034,-0.30489 -0.0052,-0.14469 -0.0155,-0.29972 -0.387572,-0.23255 -0.816485,-0.34107 -0.423745,-0.11368 -0.868161,-0.11368 -0.759642,0 -1.19889,0.45475 -0.43408,0.44958 -0.43408,1.23506 0,0.93017 0.43408,1.37976 0.439248,0.44958 1.178219,0.44958 0.341063,0 0.656289,-0.11369 0.320393,-0.11369 0.552936,-0.39274 z"
           id="path56"
           style="fill:#4d4d4d" />
        <path
           d="m 59.953896,243.06759 h -0.05168 q -0.21704,-0.0517 -0.423745,-0.0724 -0.201538,-0.0258 -0.48059,-0.0258 -0.449583,0 -0.868161,0.20154 -0.418578,0.19637 -0.80615,0.5116 v 4.09793 h -0.97151 v -5.77224 h 0.971514 v 0.85265 q 0.578774,-0.46508 1.018023,-0.65628 0.444416,-0.19637 0.904334,-0.19637 0.253214,0 0.366902,0.0155 0.113688,0.0103 0.341063,0.0465 z"
           id="path58"
           style="fill:#4d4d4d" />
        <path
           d="m 65.653789,247.78047 h -0.971514 v -0.64079 q -0.490924,0.38757 -0.940508,0.59428 -0.449583,0.2067 -0.992184,0.2067 -0.909503,0 -1.41593,-0.55293 -0.506427,-0.55811 -0.506427,-1.63297 v -3.74653 h 0.971513 v 3.28661 q 0,0.43924 0.04134,0.75447 0.04134,0.31006 0.1757,0.53227 0.139526,0.22737 0.361734,0.33072 0.222208,0.10336 0.645953,0.10336 0.377237,0 0.821653,-0.19637 0.449583,-0.19637 0.837155,-0.50126 v -4.3098 h 0.971514 z m -0.857826,-8.66095 -1.410762,1.9327 h -0.769977 l 0.925006,-1.9327 z"
           id="path60"
           style="fill:#4d4d4d" />
        <path
           d="m 72.392373,247.78047 h -0.971514 v -3.28662 q 0,-0.3979 -0.04651,-0.74413 -0.04651,-0.3514 -0.170531,-0.54777 -0.129191,-0.21704 -0.372069,-0.3204 -0.242879,-0.10852 -0.630451,-0.10852 -0.397907,0 -0.831988,0.19637 -0.434081,0.19637 -0.831988,0.50126 v 4.30981 h -0.971514 v -5.77224 h 0.971514 v 0.64078 q 0.454751,-0.37724 0.940508,-0.58911 0.485757,-0.21187 0.997352,-0.21187 0.935341,0 1.426265,0.56327 0.490925,0.56327 0.490925,1.62264 z"
           id="path62"
           style="fill:#4d4d4d" />
        <path
           d="m 84.479451,247.21203 q -0.630451,0.28938 -1.379757,0.50642 -0.744138,0.21188 -1.441768,0.21188 -0.899167,0 -1.648473,-0.24805 -0.749305,-0.24805 -1.276403,-0.74414 -0.532266,-0.50126 -0.821653,-1.25056 -0.289387,-0.75448 -0.289387,-1.76216 0,-1.84485 1.074866,-2.90938 1.080034,-1.0697 2.96105,-1.0697 0.656289,0 1.338416,0.1602 0.687294,0.15503 1.477941,0.53226 v 1.2144 h -0.09302 q -0.160197,-0.12403 -0.465087,-0.32556 -0.30489,-0.20154 -0.599444,-0.3359 -0.356567,-0.1602 -0.811318,-0.26355 -0.449583,-0.10852 -1.02319,-0.10852 -1.291907,0 -2.04638,0.83199 -0.749306,0.82682 -0.749306,2.24275 0,1.49344 0.785479,2.32543 0.78548,0.82682 2.139398,0.82682 0.496092,0 0.987017,-0.0982 0.496092,-0.0982 0.868161,-0.25322 v -1.88618 H 81.40471 v -0.89917 h 3.074738 z"
           id="path64"
           style="fill:#4d4d4d" />
        <path
           d="m 87.171785,247.78047 h -0.971514 v -5.77224 h 0.971514 z m 1.069699,-8.66095 -1.410762,1.9327 h -0.769977 l 0.925005,-1.9327 z"
           id="path66"
           style="fill:#4d4d4d" />
        <path
           d="m 93.776011,247.12418 q 0,1.4676 -0.666624,2.1549 -0.666624,0.68729 -2.051548,0.68729 -0.459918,0 -0.899167,-0.0672 -0.43408,-0.062 -0.857826,-0.18086 v -0.99219 h 0.05168 q 0.237711,0.093 0.754474,0.22738 0.516763,0.13952 1.033525,0.13952 0.496093,0 0.821653,-0.11885 0.32556,-0.11886 0.506427,-0.33073 0.180867,-0.20154 0.258382,-0.48576 0.07751,-0.28422 0.07751,-0.63562 v -0.52709 q -0.439248,0.35139 -0.842323,0.52709 -0.397907,0.17054 -1.018022,0.17054 -1.033526,0 -1.643306,-0.74414 -0.604612,-0.74931 -0.604612,-2.10839 0,-0.74414 0.206705,-1.28158 0.211873,-0.5426 0.573607,-0.93534 0.335895,-0.3669 0.816485,-0.56844 0.480589,-0.2067 0.956011,-0.2067 0.501259,0 0.837155,0.10335 0.341063,0.0982 0.7183,0.30489 l 0.06201,-0.24804 h 0.909502 z M 92.804497,246.194 v -3.14708 q -0.387572,-0.1757 -0.723468,-0.24805 -0.330728,-0.0775 -0.661456,-0.0775 -0.800982,0 -1.260901,0.53743 -0.459919,0.53743 -0.459919,1.56062 0,0.97152 0.341064,1.47278 0.341063,0.50126 1.13171,0.50126 0.423746,0 0.847491,-0.1602 0.428913,-0.16536 0.785479,-0.43925 z"
           id="path68"
           style="fill:#4d4d4d" />
        <path
           d="m 97.48637,241.04188 h -1.095537 v -1.00769 h 1.095537 z m -0.06201,6.87811 q 0,1.01286 -0.516763,1.52962 -0.516763,0.51676 -1.384924,0.51676 -0.206705,0 -0.547768,-0.0413 -0.335896,-0.0413 -0.563272,-0.10335 v -0.92501 h 0.05168 q 0.144693,0.0568 0.387572,0.12919 0.248046,0.0724 0.480589,0.0724 0.372069,0 0.599445,-0.10335 0.227375,-0.10336 0.341063,-0.31006 0.113688,-0.20671 0.144693,-0.50126 0.03617,-0.28939 0.03617,-0.70796 v -4.65087 h -1.204057 v -0.81648 h 2.175571 z"
           id="path70"
           style="fill:#4d4d4d" />
        <path
           d="m 103.81671,247.78047 h -0.96635 v -0.61495 q -0.12919,0.0879 -0.3514,0.24804 -0.21704,0.15503 -0.42374,0.24805 -0.24288,0.11886 -0.5581,0.19637 -0.31523,0.0827 -0.73898,0.0827 -0.780307,0 -1.322908,-0.51676 -0.5426,-0.51676 -0.5426,-1.31775 0,-0.65628 0.279051,-1.05936 0.28422,-0.40824 0.80615,-0.64079 0.527097,-0.23254 1.266067,-0.31522 0.73897,-0.0827 1.58646,-0.12402 v -0.14986 q 0,-0.33073 -0.11885,-0.54777 -0.11369,-0.21704 -0.33073,-0.34107 -0.20671,-0.11885 -0.49609,-0.16019 -0.28939,-0.0413 -0.60461,-0.0413 -0.38241,0 -0.85266,0.10335 -0.470257,0.0982 -0.971517,0.28939 h -0.05168 v -0.98702 q 0.284219,-0.0775 0.821657,-0.17053 0.53743,-0.093 1.05936,-0.093 0.60978,0 1.05937,0.10335 0.45475,0.0982 0.78548,0.34107 0.32556,0.23771 0.49609,0.61494 0.17053,0.37724 0.17053,0.93534 z m -0.96635,-1.4211 v -1.60713 q -0.44441,0.0258 -1.04903,0.0775 -0.59944,0.0517 -0.95084,0.14986 -0.41858,0.11886 -0.67696,0.37207 -0.258379,0.24805 -0.258379,0.68729 0,0.4961 0.299719,0.74931 0.29973,0.24805 0.91467,0.24805 0.5116,0 0.93534,-0.19637 0.42375,-0.20154 0.78548,-0.48059 z"
           id="path72"
           style="fill:#4d4d4d" />
      </g>
    </a>
  </g>
</svg>
