<?xml version="1.0" encoding="UTF-8" standalone="no"?>
<svg
   xmlns:dc="http://purl.org/dc/elements/1.1/"
   xmlns:cc="http://creativecommons.org/ns#"
   xmlns:rdf="http://www.w3.org/1999/02/22-rdf-syntax-ns#"
   xmlns:svg="http://www.w3.org/2000/svg"
   xmlns="http://www.w3.org/2000/svg"
   xmlns:sodipodi="http://sodipodi.sourceforge.net/DTD/sodipodi-0.dtd"
   xmlns:inkscape="http://www.inkscape.org/namespaces/inkscape"
   width="210mm"
   height="297mm"
   viewBox="0 0 210 297"
   version="1.1"
   id="svg8"
   inkscape:version="1.0.2-2 (e86c870879, 2021-01-15)"
   sodipodi:docname="Lógó sofandi.svg">
  <defs
     id="defs2">
    <inkscape:path-effect
       effect="skeletal"
       id="path-effect262"
       is_visible="true"
       lpeversion="1"
       pattern="M 0,5 C 0,2.24 2.24,0 5,0 7.76,0 10,2.24 10,5 10,7.76 7.76,10 5,10 2.24,10 0,7.76 0,5 Z"
       copytype="single_stretched"
       prop_scale="1"
       scale_y_rel="false"
       spacing="0"
       normal_offset="0"
       tang_offset="0"
       prop_units="false"
       vertical_pattern="false"
       hide_knot="false"
       fuse_tolerance="0" />
    <inkscape:path-effect
       effect="skeletal"
       id="path-effect258"
       is_visible="true"
       lpeversion="1"
       pattern="M 0,5 C 0,2.24 2.24,0 5,0 7.76,0 10,2.24 10,5 10,7.76 7.76,10 5,10 2.24,10 0,7.76 0,5 Z"
       copytype="single_stretched"
       prop_scale="1"
       scale_y_rel="false"
       spacing="0"
       normal_offset="0"
       tang_offset="0"
       prop_units="false"
       vertical_pattern="false"
       hide_knot="false"
       fuse_tolerance="0" />
    <inkscape:path-effect
       effect="skeletal"
       id="path-effect254"
       is_visible="true"
       lpeversion="1"
       pattern="M 0,5 C 0,2.24 2.24,0 5,0 7.76,0 10,2.24 10,5 10,7.76 7.76,10 5,10 2.24,10 0,7.76 0,5 Z"
       copytype="single_stretched"
       prop_scale="1"
       scale_y_rel="false"
       spacing="0"
       normal_offset="0"
       tang_offset="0"
       prop_units="false"
       vertical_pattern="false"
       hide_knot="false"
       fuse_tolerance="0" />
    <inkscape:path-effect
       effect="skeletal"
       id="path-effect250"
       is_visible="true"
       lpeversion="1"
       pattern="M 0,5 C 0,2.24 2.24,0 5,0 7.76,0 10,2.24 10,5 10,7.76 7.76,10 5,10 2.24,10 0,7.76 0,5 Z"
       copytype="single_stretched"
       prop_scale="1"
       scale_y_rel="false"
       spacing="0"
       normal_offset="0"
       tang_offset="0"
       prop_units="false"
       vertical_pattern="false"
       hide_knot="false"
       fuse_tolerance="0" />
    <inkscape:path-effect
       effect="skeletal"
       id="path-effect246"
       is_visible="true"
       lpeversion="1"
       pattern="M 0,5 C 0,2.24 2.24,0 5,0 7.76,0 10,2.24 10,5 10,7.76 7.76,10 5,10 2.24,10 0,7.76 0,5 Z"
       copytype="single_stretched"
       prop_scale="1"
       scale_y_rel="false"
       spacing="0"
       normal_offset="0"
       tang_offset="0"
       prop_units="false"
       vertical_pattern="false"
       hide_knot="false"
       fuse_tolerance="0" />
    <inkscape:path-effect
       effect="skeletal"
       id="path-effect202"
       is_visible="true"
       lpeversion="1"
       pattern="M 0,5 C 0,2.24 2.24,0 5,0 7.76,0 10,2.24 10,5 10,7.76 7.76,10 5,10 2.24,10 0,7.76 0,5 Z"
       copytype="single_stretched"
       prop_scale="1"
       scale_y_rel="false"
       spacing="0"
       normal_offset="0"
       tang_offset="0"
       prop_units="false"
       vertical_pattern="false"
       hide_knot="false"
       fuse_tolerance="0" />
  </defs>
  <sodipodi:namedview
     id="base"
     pagecolor="#ffffff"
     bordercolor="#666666"
     borderopacity="1.0"
     inkscape:pageopacity="0.0"
     inkscape:pageshadow="2"
     inkscape:zoom="0.35"
     inkscape:cx="400"
     inkscape:cy="560"
     inkscape:document-units="mm"
     inkscape:current-layer="layer1"
     inkscape:document-rotation="0"
     showgrid="false"
     inkscape:window-width="1421"
     inkscape:window-height="1030"
     inkscape:window-x="859"
     inkscape:window-y="71"
     inkscape:window-maximized="0" />
  <metadata
     id="metadata5">
    <rdf:RDF>
      <cc:Work
         rdf:about="">
        <dc:format>image/svg+xml</dc:format>
        <dc:type
           rdf:resource="http://purl.org/dc/dcmitype/StillImage" />
        <dc:title></dc:title>
      </cc:Work>
    </rdf:RDF>
  </metadata>
  <g
     inkscape:label="Lag 1"
     inkscape:groupmode="layer"
     id="layer1">
    <g
       id="g777"
       transform="translate(3.0238095,-84.666667)">
      <ellipse
         style="fill:#4d4d4d;stroke-width:0.214359"
         id="path170"
         ry="13.607142"
         rx="19.65476"
         cy="277.30432"
         cx="30.004715"
         transform="rotate(2.0953419)" />
      <path
         style="fill:#4d4d4d;stroke-width:0.264583"
         id="path182"
         d="m 1.5401176,280.74715 c -0.6714567,2.01671 -0.60121941,4.00602 0.038731,5.99949 0.2883447,1.41335 1.256499,2.25126 2.3741983,3.03992 1.0623071,0.63587 2.1363443,1.19876 3.3270087,1.54688 1.4230191,0.34086 2.8908578,0.40807 4.3466188,0.48165 1.513254,0.0661 3.027249,0.11371 4.541032,0.16587 1.512132,0.0523 3.024195,0.10667 4.536256,0.161 1.431543,0.0889 2.842077,0.13587 4.260143,-0.0922 0.687982,-0.0897 1.363662,-0.22315 2.037584,-0.38512 0,0 9.151395,-6.52795 9.151395,-6.52795 v 0 c -0.658002,0.16691 -1.293756,0.42316 -1.978134,0.45227 -1.391861,0.23348 -2.720424,0.50729 -4.146435,0.28571 -1.512492,-0.055 -3.024966,-0.11068 -4.537557,-0.16302 -1.511123,-0.0523 -3.022353,-0.10154 -4.53337,-0.15685 -1.407135,-0.0565 -2.819544,-0.10012 -4.214408,-0.30807 -1.14337,-0.21712 -2.113217,-0.66284 -3.117711,-1.22929 -0.996515,-0.58611 -1.783166,-1.14563 -2.021655,-2.35231 -0.562876,-1.79264 -0.466084,-3.56071 0.26065,-5.31408 0,0 -10.3243246,4.39541 -10.3243246,4.39541 z" />
      <path
         style="fill:#4d4d4d;stroke-width:0.264583"
         id="path204"
         d="m 10.857725,281.97896 c -0.824352,-3.15665 -0.649178,-6.31315 -0.241852,-9.51052 0.435841,-2.14771 0.859019,-4.39087 2.873886,-5.56381 -3.041365,1.65212 -6.0902407,3.29048 -9.124094,4.95635 -0.2030045,0.11143 0.412794,-0.21276 0.630248,-0.29244 0.9081671,-0.33281 1.8936787,-0.33557 2.8462708,-0.35035 1.4486921,0.022 2.2960782,0.27543 3.2085352,1.37351 0.504821,1.06767 1.31331,1.96508 1.700902,3.08167 0.433822,1.46623 0.149379,2.88608 -0.283402,4.30509 0,0 10.233964,-4.48945 10.233964,-4.48945 v 0 c 0.343982,-1.63749 0.539242,-3.28453 0.04633,-4.92282 -0.447471,-1.24879 -1.252953,-2.26625 -1.858143,-3.44402 -1.182072,-1.44087 -1.828297,-1.92337 -3.741295,-2.1985 -5.84391,-0.17378 -7.8097869,1.57015 -14.2138422,5.82494 -1.6164193,1.73702 -2.08055898,4.01058 -2.40890509,6.30676 -0.35340008,3.31645 -0.47589036,6.59095 0.25657102,9.87173 0,0 10.07482227,-4.94814 10.07482127,-4.94814 z" />
      <path
         style="fill:#4d4d4d;stroke-width:0.264583"
         id="path208"
         d="m 18.639671,289.16004 c 2.447446,0.87416 4.945717,1.58227 7.493752,2.09 1.696133,0.30254 3.415582,0.48267 5.138441,0.50503 6.962618,-0.66609 10.914244,-2.88198 11.538285,-8.29712 0.205031,-1.61045 0.218548,-3.08722 -0.59759,-4.52407 -0.617383,-1.1278 -1.719065,-1.7814 -2.707622,-2.53935 -0.725213,-0.76453 -1.326131,-1.63147 -2.013044,-2.42869 -0.643923,-0.56071 -1.083873,-1.67715 -1.904597,-2.02709 -0.31139,-0.13278 -0.659778,-0.15186 -0.989666,-0.22779 -11.540525,6.83911 -8.482084,3.00194 -12.175027,8.2747 0,0 10.271954,-4.03141 10.271954,-4.03141 v 0 c 3.364046,-4.19751 2.04894,-2.03558 -7.234852,2.29956 0.139761,-0.20082 0.195396,-0.50376 0.419283,-0.6024 0.188717,-0.0832 1.604565,1.55481 1.789439,1.8293 0.761544,0.80454 1.360838,1.74661 2.099532,2.57332 0.844102,0.73711 1.937796,1.19708 2.52577,2.18836 0.71474,1.15816 0.405308,2.54225 0.260235,3.82853 -0.113238,0.54789 -0.199089,1.15989 -0.59366,1.59499 -0.105918,0.1168 -0.515737,0.35955 -0.375252,0.28796 8.888589,-4.52912 12.428223,-6.85071 8.941109,-4.58526 -1.643045,0.32565 -3.36938,-0.10125 -5.019119,-0.22647 -2.509263,-0.40787 -4.984965,-1.01254 -7.357748,-1.93857 0,0 -9.509621,5.95642 -9.509621,5.95642 z" />
      <path
         style="fill:#4d4d4d;stroke-width:0.264583"
         id="path210"
         d="m 39.289699,281.07542 c -2.137737,0.92722 -4.19975,2.00743 -6.425562,2.71265 -1.497996,0.43529 -3.055468,0.52388 -4.606051,0.50827 -3.991821,-0.14905 -0.291241,-0.48818 -9.29994,6.30638 -0.14497,0.10934 0.363232,0.002 0.544674,0.009 0.670076,0.0276 0.456837,0.006 1.080099,0.16901 1.246691,0.63166 2.55289,1.05004 3.921662,1.31145 0.739009,0.127 1.486571,0.18488 2.233081,0.24489 0,0 9.345729,-6.23823 9.345729,-6.23823 v 0 c -0.725192,-0.0405 -1.450929,-0.079 -2.172944,-0.16146 -1.314551,-0.17054 -2.612803,-0.42395 -3.773083,-1.10358 -0.551642,-0.28859 -0.675914,-0.41035 -1.291154,-0.51467 -3.904638,-0.66212 -14.61202,6.50397 -9.915047,6.28333 1.614879,0.0127 3.241856,0.0595 4.83209,-0.28126 2.295982,-0.5581 4.358301,-1.61158 6.508043,-2.5575 0,0 9.018406,-6.68818 9.018406,-6.68818 z" />
      <path
         style="fill:#4d4d4d;stroke-width:0.264583"
         id="path279"
         d="m 43.514938,281.71397 c -0.320331,-2.42104 -0.868786,-4.71396 -2.207506,-6.77544 -1.129521,-1.4444 -2.635191,-2.31829 -4.356484,-2.85783 -1.7129,-0.39969 -3.479617,-0.46316 -5.230105,-0.53917 -1.305343,-0.0508 -2.611146,-0.0885 -3.916805,-0.13006 0,0 -9.320997,6.27041 -9.320997,6.27041 v 0 c 1.306847,0.0418 2.613743,0.0816 3.920693,0.11992 1.698581,0.0552 3.402958,0.0983 5.087953,0.33719 1.550623,0.32516 2.89992,0.92832 3.969857,2.14517 1.296913,1.86304 1.731521,4.03169 1.923866,6.26978 0,0 10.129528,-4.83993 10.129528,-4.83993 z" />
      <ellipse
         style="fill:#333333;stroke-width:0.323028"
         id="path293"
         cx="164.94223"
         cy="235.72696"
         rx="43.467262"
         ry="40.065475"
         transform="rotate(2.0953419)" />
      <path
         style="fill:#333333;stroke-width:0.264583"
         id="path299"
         d="m 118.16682,219.24068 c 17.16351,-8.84799 7.34076,-3.5086 2.85274,-2.42368 -1.56317,0.23598 -3.11965,0.45333 -4.6675,0.78126 -1.36552,0.457 -2.76966,0.69707 -4.20115,0.80413 -1.51352,0.0135 -3.00842,0.26803 -4.50245,0.48571 -5.67113,1.12185 -14.391704,6.65324 -7.46876,7.39055 1.56526,0.19607 3.10706,-0.0488 4.65363,-0.25797 1.5141,-0.0631 2.92969,-0.30099 4.33978,-0.84803 4.26015,-1.62427 0.60264,-0.19964 10.96294,-5.83466 0.19613,-0.10667 0.77239,-0.4478 0.57517,-0.34319 -3.074,1.63074 -12.25261,6.60353 -9.20617,4.9219 11.17995,-6.17135 7.2903,-3.05042 10.89623,-5.99639 1.14069,-0.90708 2.2363,-1.88621 3.52528,-2.58626 1.07644,-0.664 1.95172,-1.58702 2.98125,-2.30273 3.79223,-1.59534 -0.0142,-0.0123 -8.80157,4.7471 -0.19039,0.10312 0.40111,-0.16323 0.60203,-0.24397 0.67471,-0.27111 1.35777,-0.51804 2.03408,-0.78518 1.37732,-0.59774 2.88287,-0.65958 4.33143,-0.96323 1.00622,-0.19311 0.50033,-0.10504 1.5177,-0.26395 0,0 9.216,-6.41935 9.216,-6.41935 v 0 c -1.04608,0.11083 -0.52684,0.0448 -1.55778,0.19738 -0.46174,0.0894 -0.90824,0.2504 -1.37166,0.33057 -1.01454,0.17554 -2.08558,0.0946 -3.06447,0.49074 -4.73094,1.65129 -9.46535,3.80658 -13.49372,6.74544 -0.93353,0.8136 -1.96437,1.50779 -2.99938,2.18522 -1.19525,0.85204 -2.32395,1.78904 -3.50722,2.65757 -0.18914,0.11913 -0.76564,0.46064 -0.56742,0.35735 3.09613,-1.61343 12.30538,-6.60133 9.26298,-4.88875 -2.89606,1.6302 -23.902419,12.55833 -1.72336,1.02638 0.18569,-0.0966 -0.35183,0.22672 -0.52772,0.34008 -1.50224,0.51148 -2.50017,1.19448 -4.20296,1.06399 -1.51084,0.16594 -2.994,0.56618 -4.52114,0.42922 -0.49055,-0.0158 -1.13825,-0.14021 -1.62641,-0.0359 -3.4115,0.72953 -13.382,7.80543 -9.418883,5.40686 1.381491,-0.46593 2.950473,-0.5154 4.390163,-0.65853 1.46505,-0.0358 2.94081,-0.12084 4.34161,-0.59282 1.49564,-0.53658 3.095,-0.70694 4.66665,-0.87082 6.14792,-1.13597 11.46366,-4.87118 16.88365,-7.71899 0,0 -10.60359,3.6729 -10.60359,3.6729 z" />
      <path
         style="fill:#333333;stroke-width:0.264583"
         id="path301"
         d="m 114.03744,223.06784 c 0.36538,-0.22578 0.73905,-0.43872 1.09618,-0.67737 1.52449,-1.01872 0.76707,-0.64579 2.31498,-1.58063 0.3622,-0.21874 1.48283,-0.81579 1.10931,-0.61701 -21.289866,11.33032 -0.6819,0.42297 1.91817,-0.94997 -3.00524,1.59585 -11.97625,6.4648 -9.01569,4.78755 3.43625,-1.94672 6.96395,-3.72739 10.44316,-5.59625 0.20104,-0.10799 0.79903,-0.44128 0.59747,-0.33426 -3.08362,1.63724 -12.3383,6.54155 -9.2438,4.925 13.57542,-7.09176 6.68833,-3.70654 10.85821,-5.75197 -17.06233,8.63696 -10.71786,5.25461 -6.61149,3.97473 1.11816,-0.61667 2.3687,-0.793 3.59,-1.08685 1.27779,-0.30583 2.51969,-0.74303 3.75425,-1.18804 0,0 9.02269,-6.64106 9.02269,-6.64106 v 0 c -1.16647,0.54435 -2.39353,0.91849 -3.61926,1.31076 -1.23784,0.28682 -2.51188,0.43639 -3.69459,0.90621 -3.77527,2.24177 -12.88382,0.9203 -13.09285,6.37679 -0.16623,0.0965 -0.66895,0.3785 -0.49866,0.28941 3.1104,-1.62712 12.42934,-6.53183 9.31944,-4.90377 -3.47287,1.81807 -6.94469,3.6382 -10.40833,5.47381 -8.18482,4.33773 33.34017,-17.46154 -1.99883,1.09051 2.9703,-1.56565 11.8824,-6.26038 8.91091,-4.69698 -5.28217,2.77911 -10.5006,5.21283 -15.31664,8.64982 0,0 10.56537,-3.76043 10.56537,-3.76043 z" />
      <path
         style="fill:#333333;stroke-width:0.264583"
         id="path303"
         d="m 101.12145,228.02424 c 1.19818,2.20596 2.16053,4.51232 2.65635,6.97548 0.31004,2.2391 0.25491,4.50525 0.18165,6.75793 -0.0647,1.63179 -0.14176,3.26306 -0.2102,4.8947 -0.0622,1.50705 -0.11831,3.01435 -0.17343,4.52166 -0.0138,1.43771 -0.46038,2.8034 -1.0016,4.11545 -0.86461,0.9928 -1.48391,1.97946 -1.89072,3.24328 -0.789706,1.27969 -1.130791,2.76761 -1.81455,4.09004 -0.101797,0.22242 -0.212031,0.44114 -0.305319,0.66724 -0.216006,0.52354 -0.21418,0.77755 -0.579655,1.20682 -0.396132,0.46531 -0.775072,0.75227 -1.102538,1.29517 -0.652866,0.85626 -1.50635,1.51967 -2.183675,2.34905 -0.962118,1.06752 -1.624773,2.32852 -2.066722,3.68829 -0.335642,1.36831 -0.755465,2.78068 -1.669593,3.87734 -0.275722,0.41493 -0.332545,0.59403 -0.747898,0.87292 -3.199065,2.14806 -9.271313,5.07012 7.922059,-4.14463 -3.439775,1.82464 -6.906207,3.5999 -10.319323,5.47395 -0.775334,0.42569 -0.04054,1.39258 0.332612,1.71762 0.361426,0.31479 1.291075,0.4074 1.6934,0.47837 2.813941,0.26213 5.640222,0.37887 8.463529,0.4933 2.251283,0.0962 4.503443,0.16778 6.755473,0.24316 2.71007,-0.0353 5.33842,0.65772 7.96875,1.21427 2.21334,0.41241 4.44082,0.73372 6.66215,1.10373 2.84614,0.49569 5.72634,0.63438 8.60948,0.57878 3.05133,-0.1698 6.03737,-0.8605 9.06355,-1.25083 2.45727,-0.29792 4.85381,-0.91481 7.3075,-1.22879 2.72327,-0.10592 5.40319,-0.27408 8.06744,-0.86214 0.83466,-0.15348 1.64894,-0.36372 2.45525,-0.6245 0,0 9.02729,-6.68593 9.02729,-6.68593 v 0 c -0.74225,0.43691 -1.4791,0.73615 -2.35173,0.82077 -1.09727,0.25986 -2.2074,0.6074 -3.32356,0.77133 -1.56264,0.22951 -3.14399,0.11839 -4.71392,0.23601 -2.47594,0.19665 -4.8584,0.78144 -7.30233,1.19943 -3.03171,0.35364 -6.00728,1.02385 -9.03845,1.35969 -2.83086,0.10956 -5.64907,0.0406 -8.45148,-0.42979 -2.2172,-0.35048 -4.41663,-0.77302 -6.6432,-1.06347 -2.67368,-0.52073 -5.324,-1.32221 -8.06133,-1.37402 -2.25508,-0.0855 -4.51033,-0.16499 -6.76601,-0.23304 -2.78725,-0.099 -5.57714,-0.18134 -8.356417,-0.42602 -0.402012,-0.0417 -1.745032,-0.50605 -1.277471,0.43114 0.08118,0.16269 0.59364,-0.23982 0.524104,-0.1512 -3.120348,1.64284 -6.240696,3.28569 -9.361041,4.92856 3.800383,-2.01288 9.666134,-3.52818 12.310215,-7.62508 0.68253,-1.30651 1.14408,-2.68721 1.56195,-4.09883 0.54503,-1.2328 1.29969,-2.34313 2.25363,-3.30054 0.7885,-0.75433 1.48274,-1.60555 2.12568,-2.48581 0.8375,-1.01595 1.42685,-2.10941 1.88342,-3.35122 0.56294,-1.40232 1.17214,-2.77923 1.79773,-4.15431 0.53353,-1.15014 1.4353,-2.05464 1.89462,-3.2461 0.51412,-1.42561 0.81604,-2.93255 0.83964,-4.45081 0.0561,-1.50567 0.11316,-3.01131 0.17426,-4.51679 0.0668,-1.63316 0.13901,-3.26625 0.17728,-4.90039 0.0371,-2.33097 0.035,-4.67373 -0.31706,-6.98431 -0.56558,-2.51151 -1.59744,-4.84818 -2.71206,-7.16207 0,0 -9.96712,5.1446 -9.96712,5.1446 z" />
      <path
         style="fill:#333333;stroke-width:0.264583"
         id="path305"
         d="m 99.458421,274.59656 c 2.860949,0.0258 5.692429,0.50028 8.531959,0.80649 1.98744,0.10739 3.91435,0.58145 5.81918,1.12321 2.5008,0.65689 5.08135,0.8874 7.65281,1.05548 4.31363,0.10585 8.59439,0.35057 12.85893,1.02045 0,0 9.24448,-6.05337 9.24448,-6.05337 v 0 c -4.26296,-0.67619 -8.53232,-1.04919 -12.85002,-1.14781 -2.5001,-0.16301 -5.01408,-0.33216 -7.46102,-0.90463 -1.96326,-0.53722 -3.91126,-1.20042 -5.97389,-1.24925 -2.83859,-0.27601 -5.65914,-0.73027 -8.5043,-0.91319 0,0 -9.318129,6.26262 -9.318129,6.26262 z" />
      <path
         style="fill:#333333;stroke-width:0.264583"
         id="path307"
         d="m 108.39446,269.24136 c 2.63906,-3.6546 5.22858,-7.35119 7.71528,-11.1118 1.02742,-1.46736 2.13542,-2.88052 3.07866,-4.40586 0.49581,-0.80175 0.85361,-1.73568 1.54826,-2.38966 -3.60843,1.6138 -7.36112,2.93753 -10.82528,4.8414 -0.528,0.29017 -0.58122,1.05551 -0.86824,1.58523 -1.64561,3.0371 -3.0248,6.16701 -4.3838,9.34012 -0.92881,2.11864 -1.88481,4.32733 -3.6765,5.87607 -0.54283,0.46926 -1.16606,0.83652 -1.744734,1.26079 -4.108748,4.83232 1.677534,0.85769 9.762864,-3.06777 0.33524,-0.16278 0.43274,-0.60702 0.66007,-0.90231 0.27441,-0.35642 0.56319,-0.70155 0.84478,-1.0523 1.00629,-1.30113 2.15228,-2.43614 3.5576,-3.30609 0.50482,-0.31248 2.09053,-1.12595 1.57698,-0.82804 -8.59624,4.98688 -11.55528,3.96622 -7.48675,5.04757 1.4053,1.55739 1.59899,3.70398 1.84619,5.70098 0.17047,1.37715 -0.0806,0.75268 0.43853,1.67979 3.33094,-2.31066 7.02893,-4.16621 9.99281,-6.93202 0.61975,-0.57834 0.079,-1.69407 0.15561,-2.53829 0.0819,-0.90158 0.15347,-1.80707 0.31974,-2.69696 0.13071,-0.69953 0.26717,-1.41317 0.56868,-2.05777 0.17622,-0.37676 1.19765,-1.12591 0.82971,-0.93197 -3.11102,1.63987 -6.08065,3.53495 -9.12097,5.30241 1.20348,1.21895 2.72663,4.08193 2.19551,5.86046 -0.0898,0.30053 -0.35103,0.51988 -0.52655,0.7798 3.05819,-1.8062 6.38357,-3.22195 9.17455,-5.41866 0.38112,-0.29995 -0.45196,-0.86199 -0.61381,-1.31919 -0.27616,-0.78019 -0.50586,-1.57782 -0.69673,-2.38315 -0.48999,-2.06742 -0.73073,-4.03725 -0.45793,-6.13662 -3.06081,1.8355 -6.20633,3.53661 -9.1824,5.5065 -0.13247,0.0877 0.19792,0.25123 0.26939,0.3931 0.28839,0.57233 0.56537,1.1515 0.80779,1.74476 0.70989,1.73731 1.24506,3.55092 1.81228,5.33819 -3.8727,1.01018 3.15425,-0.79873 9.22147,-5.54618 0.37165,-0.29079 -0.61891,-0.71326 -0.90615,-1.08767 -1.35337,-1.76418 -2.49158,-3.63439 -3.60094,-5.55659 -2.30456,-5.24522 -1.84384,-3.39877 -11.19897,3.32118 -0.45119,0.3241 0.1841,1.0957 0.27637,1.64353 0.47526,2.82135 0.24825,1.51334 0.74123,4.26595 1.50504,4.7601 0.66126,3.39976 10.88068,-4.64254 0.70122,-0.55184 0.15451,-1.77793 0.23315,-2.66678 0.26274,-2.97056 0.51073,-5.94223 0.77257,-8.91286 -1.57772,1.98296 0.85105,-2.42617 0.18493,-2.15249 -3.70369,1.5217 -7.30183,3.29239 -10.89419,5.061 -4.14904,2.04267 10.58567,0.5123 8.41193,-5.04069 -0.47503,-2.15225 -0.27268,-1.0299 -0.58766,-3.37053 0,0 -9.96856,4.83853 -9.96856,4.83853 v 0 c 0.34662,2.5089 0.12838,1.27628 0.64868,3.69892 2.41403,5.12681 0.37013,2.20919 11.31281,-3.43465 0.28584,-0.14743 0.97019,-0.80221 0.6658,-0.69834 -11.14269,3.80235 -9.55467,0.47915 -9.75291,5.68402 -0.18669,2.94717 -0.34245,5.92173 -0.79875,8.84287 -0.13297,0.85124 -1.37345,2.63965 -0.51864,2.53207 11.09237,-1.39615 11.01468,-0.74292 9.33099,-4.60614 -0.28693,-1.5856 -0.51067,-2.59132 -0.63014,-4.21274 -0.0348,-0.47161 0.44676,-1.56262 -0.004,-1.41862 -3.4934,1.11687 -6.65926,3.07555 -9.98891,4.61333 0.12572,0.0967 0.2937,0.15531 0.37714,0.29022 0.30678,0.49589 0.51543,1.04614 0.77314,1.5692 1.1408,1.94365 2.32164,3.84963 3.5824,5.71841 0.3012,0.44647 0.40266,1.47545 0.92058,1.32778 11.14176,-3.17681 11.53109,-0.95423 10.44785,-5.13812 -0.95493,-2.39549 -1.57843,-4.95317 -2.71423,-7.2729 -0.31233,-0.63788 -0.38719,-2.09505 -1.0544,-1.85157 -3.628,1.32399 -6.65559,3.91974 -9.98338,5.87962 -0.0182,3.01654 0.46669,6.10891 1.44304,8.97257 0.25595,0.75075 0.16007,2.37027 0.9323,2.18926 3.80413,-0.89164 7.0979,-3.26882 10.64685,-4.90323 0.10447,-0.39986 0.27823,-0.78782 0.31361,-1.1996 0.22229,-2.58654 -1.43191,-5.18554 -2.85283,-7.17252 -3.56209,1.63906 -7.24497,3.03767 -10.68627,4.91715 -0.55146,0.30119 -1.01263,3.35469 -1.01607,3.37653 -0.14261,0.90911 -0.2224,1.82701 -0.32364,2.74165 -0.67182,6.06864 -0.88928,2.83193 9.48181,-1.03657 0.0314,0.15486 0.11896,0.62071 0.0943,0.46463 -0.33288,-2.10675 -0.53723,-4.42629 -1.54021,-6.34406 -0.26841,-0.51324 -0.65219,-0.95733 -0.97828,-1.436 -4.82349,-2.86674 -1.06931,-1.12461 -12.50097,4.44852 -2.06532,1.00689 -3.62633,2.7954 -5.04635,4.5409 -0.288996,0.36287 -0.578235,0.72555 -0.86698,1.08859 -0.2349,0.29534 -1.067906,0.98644 -0.703963,0.88665 11.835663,-3.24581 7.319863,-1.26951 11.230703,-4.8025 2.46294,-1.99227 3.93093,-4.63438 5.02679,-7.59152 1.35262,-3.17513 2.75717,-6.26883 4.50949,-9.24787 0.32715,-0.55621 1.63763,-1.7841 1.00552,-1.65428 -3.4856,0.7158 -6.71919,2.34504 -10.07879,3.51756 -1.2289,2.39759 -2.86518,4.54304 -4.3754,6.76432 -2.53191,3.76766 -5.06275,7.54591 -7.881959,11.10679 0,0 10.415459,-4.08291 10.415459,-4.08291 z" />
      <path
         style="fill:#333333;stroke-width:0.264583"
         id="path309"
         d="m 118.73678,254.75635 c 0.0604,-2.90364 0.078,-5.81465 0.38999,-8.70366 0,0 -10.10811,4.62462 -10.10811,4.62462 v 0 c -0.2275,2.92628 -0.23001,5.86267 -0.43105,8.79113 0,0 10.14917,-4.71209 10.14917,-4.71209 z" />
      <path
         style="fill:#333333;stroke-width:0.264583"
         id="path311"
         d="m 120.52193,227.09567 c 0.0167,-1.73516 0.0919,-3.46905 0.16119,-5.20269 0,0 -10.12386,4.70035 -10.12386,4.70035 v 0 c -0.0578,1.74395 -0.11034,3.48854 -0.22048,5.23019 0,0 10.1831,-4.72785 10.1831,-4.72785 z" />
      <path
         style="fill:#333333;stroke-width:0.264583"
         id="path313"
         d="m 119.45585,232.2968 c -0.24747,-2.55204 -0.30568,-5.11739 -0.30646,-7.67982 0.14844,-1.50534 -0.50317,-3.66558 0.92941,-4.6712 3.93633,-1.12456 0.22902,-0.10612 -8.76807,4.84506 -0.17716,0.0975 0.378,-0.14677 0.57418,-0.19582 0.68576,-0.17145 1.42241,-0.19852 2.11998,-0.30932 1.37494,-0.13736 2.67159,-0.61763 4.02224,-0.8758 1.07862,-0.12196 2.14942,-0.29427 3.22226,-0.45739 0,0 9.19917,-6.42152 9.19917,-6.42152 v 0 c -1.07007,0.13937 -2.12718,0.37431 -3.20329,0.43768 -1.39663,0.14384 -2.68168,0.58946 -4.03995,0.86648 -5.18375,0.85728 -9.02379,0.2041 -13.6159,6.20268 -0.78166,1.67108 -0.52375,3.52874 -0.55302,5.32724 0.0317,2.59317 0.14874,5.18225 0.28993,7.77167 0,0 10.12952,-4.83994 10.12952,-4.83994 z" />
      <path
         style="fill:#333333;stroke-width:0.264583"
         id="path315"
         d="m 107.46255,248.56382 c 0.30363,4.54035 1.15916,8.97311 2.45661,13.32457 1.10581,3.01319 3.59763,4.48922 6.25103,5.9543 1.92872,1.11716 3.81873,2.34959 5.52626,3.78685 0.25616,0.19752 0.50039,0.41151 0.76845,0.59248 0.94109,0.6353 0.94801,0.49693 1.98691,1.0889 1.32897,0.75725 2.53621,1.67278 3.72925,2.62304 1.48153,1.55559 3.01533,2.96137 4.91438,3.97401 1.3945,0.76676 2.9322,1.09735 4.49297,1.3033 1.50772,0.16131 3.02471,0.20503 4.53915,0.25814 1.51995,0.0272 3.04,0.19899 4.55143,-0.008 4.74083,-1.46827 9.02149,-4.17346 13.22206,-6.7742 -3.10245,1.66123 -6.20489,3.32246 -9.30733,4.9837 0,0 9.0135,-6.74912 9.0135,-6.74912 v 0 c -3.44254,1.83533 -6.88507,3.67067 -10.32762,5.50602 -3.38326,2.27905 -0.79657,0.51194 8.86417,-4.60315 1.21252,-0.64198 -3.38272,1.8554 -2.33514,1.07544 -1.38408,0.63784 -2.87476,0.31065 -4.35801,0.30009 -1.49777,-0.0488 -2.99645,-0.0887 -4.49189,-0.18896 -1.46342,-0.12409 -2.93546,-0.2976 -4.27572,-0.9451 -1.94858,-0.99596 -3.40945,-2.06412 -4.89091,-3.73203 -1.2183,-0.99165 -2.46461,-2.00604 -3.80052,-2.83919 -2.67208,-1.66647 0.33792,0.36213 -1.86236,-0.95368 -0.25691,-0.15364 -0.4869,-0.34834 -0.73036,-0.52254 -1.73515,-1.52325 -3.72324,-2.76427 -5.69151,-3.96039 -2.40421,-1.31026 -4.85471,-2.4329 -5.89326,-5.17451 -1.35329,-4.2271 -2.29077,-8.57284 -2.17977,-13.04206 0,0 -10.17178,4.72259 -10.17178,4.72259 z" />
      <path
         style="fill:#333333;stroke-width:0.264583"
         id="path317"
         d="m 84.201542,277.10399 c 2.748305,0.36604 5.510008,0.60222 8.244157,1.06706 1.932416,0.24136 3.793871,0.79845 5.682476,1.2441 1.912325,0.40933 3.874745,0.51128 5.822325,0.6256 1.8298,0.0927 3.66112,0.15329 5.49202,0.22025 0.27769,0.0104 0.55538,0.0202 0.83307,0.0303 0,0 9.31466,-6.26247 9.31466,-6.26247 v 0 c -0.2788,-0.0104 -0.55769,-0.0179 -0.83651,-0.0276 -1.83038,-0.061 -3.66079,-0.12069 -5.49057,-0.19789 -1.90735,-0.0865 -3.82453,-0.16404 -5.71031,-0.47972 -1.93172,-0.38947 -3.79455,-1.04566 -5.76346,-1.25051 -2.723164,-0.47927 -5.465613,-0.73277 -8.201614,-1.12715 0,0 -9.386271,6.15875 -9.386271,6.15875 z" />
      <path
         style="fill:#333333;stroke-width:0.264583"
         id="path319"
         d="m 85.948263,274.72989 c 2.606828,-0.84421 5.325529,-1.2075 8.007148,-1.72156 1.867193,-0.39679 3.695127,-0.94738 5.527328,-1.47643 4.467051,-1.29491 0.820821,-0.1853 11.126151,-5.71103 0.50611,-0.27137 0.54942,-0.39428 0.92278,-0.8144 0,0 -10.56346,3.89657 -10.56346,3.89657 v 0 c -5.306736,3.50904 12.62433,-6.35018 7.64271,-3.90449 -1.8634,0.44718 -3.66969,1.10412 -5.53087,1.56791 -2.67684,0.53457 -5.384614,0.90148 -8.024882,1.60785 0,0 -9.106905,6.55558 -9.106905,6.55558 z" />
      <path
         style="fill:#4d4d4d;stroke-width:0.264583"
         id="path343"
         d="m 133.88964,230.86798 c -1.52954,2.0249 -2.59636,4.3503 -4.13146,6.36781 -0.95614,1.14838 -1.76013,2.18634 -2.14697,3.65225 -0.16072,1.62653 -0.67217,3.16286 -1.12032,4.72288 -0.38571,1.82052 -1.0146,3.5701 -1.41712,5.38644 -0.33865,1.6533 -0.41768,3.34056 -0.48443,5.02183 -0.18992,2.00494 0.30271,3.94853 0.7342,5.88551 0.41778,1.40642 1.09616,2.6958 1.81447,3.96511 0.50328,1.09293 0.84925,2.25458 1.3528,3.347 0.46169,1.08173 0.70038,2.21966 1.26462,3.26043 0.34157,0.79685 0.92472,1.33502 1.62037,1.81721 0,0 9.64179,-5.82014 9.64179,-5.82014 v 0 c -0.6359,-0.27213 -1.04651,-0.62212 -1.31663,-1.284 -0.5635,-1.00547 -0.72292,-2.1559 -1.22962,-3.18763 -0.51442,-1.12189 -0.86435,-2.31738 -1.40755,-3.42756 -0.66881,-1.17066 -1.30614,-2.3568 -1.68934,-3.65942 -0.42996,-1.8437 -0.8342,-3.69063 -0.61498,-5.60027 0.10202,-1.62451 0.21001,-3.25671 0.58372,-4.84635 0.44158,-1.78166 0.98999,-3.53555 1.42612,-5.3188 0.47615,-1.55167 0.81063,-3.12788 1.18006,-4.70457 0.53389,-1.25192 1.49973,-2.19658 2.22621,-3.33686 1.36543,-2.11558 2.54409,-4.3624 4.16848,-6.29958 0,0 -10.45442,4.05871 -10.45442,4.05871 z" />
      <path
         style="fill:#808080;stroke-width:0.264583"
         id="path349"
         d="m 176.02532,207.08709 c 2.13845,0.25857 3.9875,1.25034 5.63731,2.58487 0.98402,0.81541 1.87757,1.74122 2.71411,2.70633 0.78841,0.91297 1.89047,1.46271 2.95956,1.98179 0.95417,0.50253 1.94301,0.93983 2.8422,1.53928 4.82944,3.65675 1.38998,1.9272 12.37803,-4.04797 0.50859,-1.90067 0.40325,-3.91294 0.45468,-5.86521 0.11402,-2.80144 0.45866,-5.02981 -0.87117,-7.5972 -1.07625,-1.62515 -2.72013,-2.13954 -4.54922,-2.41136 -1.67073,-0.16471 -3.35322,-0.24906 -5.03218,-0.22854 -4.99783,0.69782 -12.45122,3.14506 -11.87804,8.85662 0.41796,1.79136 1.72792,2.68804 3.38076,3.22375 1.03723,0.33836 2.56154,0.0144 3.13677,1.11814 0.38068,1.40818 0.29507,2.89081 0.25337,4.33475 -8.5e-4,1.36286 0.86468,2.34594 1.49239,3.4607 0.40287,1.06217 0.96039,2.0582 1.6433,2.96439 0.59605,0.58323 1.81387,1.60074 2.75223,1.09165 3.42203,-1.85653 6.77801,-3.83229 10.167,-5.74845 0.61744,-1.34672 0.7265,-2.83688 0.83104,-4.29418 0.13846,-0.85113 -0.0555,-1.63956 -0.27251,-2.45363 0,0 -10.05316,5.00471 -10.05316,5.00471 v 0 c 0.14812,0.71333 0.23386,1.40032 0.1114,2.13026 -0.12631,1.25069 -0.2075,2.65136 -1.15967,3.57774 3.13068,-1.65821 6.23087,-3.37531 9.39204,-4.97464 0.1564,-0.0791 -0.21229,0.28217 -0.34452,0.39723 -0.53672,0.46704 -1.07875,0.21543 -1.56474,-0.18117 -0.69027,-0.82864 -1.15442,-1.81468 -1.56086,-2.80794 -0.52891,-0.95094 -1.31077,-1.74101 -1.25526,-2.91001 0.0262,-1.62713 0.0685,-3.29499 -0.48348,-4.85062 -0.8689,-1.6716 -1.85211,-1.79295 -3.62261,-1.92343 -1.22917,-0.23269 -2.45217,-0.55525 -2.69254,-1.96411 0.0356,-0.69958 0.12816,-1.29046 0.66051,-1.81085 0.15149,-0.14808 0.7152,-0.4521 0.52617,-0.35645 -12.09978,6.12311 -12.30005,6.20838 -8.7012,4.51497 1.60526,-0.32557 3.28666,0.0125 4.91342,0.0112 1.48377,0.12645 3.01008,0.21485 4.0045,1.47519 1.19268,2.18783 0.71734,4.64461 0.6726,7.04403 -0.0747,1.69613 0.13664,3.78418 -0.85071,5.2501 3.20176,-1.58138 6.39058,-3.18922 9.60527,-4.74412 0.0796,-0.0385 -0.0995,0.17522 -0.18695,0.18863 -0.63046,0.0966 -1.02237,-1.03466 -1.58077,-1.17427 -0.90762,-0.75572 -1.98758,-1.15853 -2.98721,-1.76964 -0.95802,-0.35431 -1.93371,-0.85567 -2.69234,-1.53239 -0.85235,-1.03779 -1.82711,-1.98936 -2.85137,-2.85543 -1.72766,-1.48091 -3.7083,-2.62499 -5.95189,-3.11339 0,0 -9.38627,6.15874 -9.38627,6.15874 z" />
      <path
         style="fill:#4d4d4d;stroke-width:0.264583"
         id="path351"
         d="m 190.54784,201.02293 c 0.37028,-1.14337 0.73881,-2.37364 1.4408,-3.37137 0.16514,-0.23471 0.85204,-0.75309 0.59818,-0.61922 -9.60312,5.06416 -12.53575,4.03225 -9.06982,5.20663 0.477,1.27944 0.26358,0.58986 0.61049,2.07772 0,0 9.99427,-4.97366 9.99427,-4.97366 v 0 c -0.42186,-1.72969 -0.16191,-0.88624 -0.77578,-2.53159 -0.28481,-0.40903 -0.38925,-1.40604 -0.85444,-1.22708 -8.93002,3.43554 -10.17748,3.47299 -12.22521,9.94153 0,0 10.28151,-4.50296 10.28151,-4.50296 z" />
      <path
         style="fill:#4d4d4d;stroke-width:0.264583"
         id="path353"
         d="m 189.56011,201.46632 c -0.48438,-0.73669 -1.2574,-1.52645 -1.36755,-2.45624 -0.0153,-0.1298 0.007,-0.31429 0.12532,-0.37155 0.13186,-0.0643 0.55478,0.0273 0.42817,0.10171 -3.09572,1.81181 -6.29137,3.44722 -9.43705,5.17084 0.45329,-0.13035 0.23002,-0.13295 0.66986,-0.003 0,0 9.66807,-5.78995 9.66807,-5.78995 v 0 c -0.709,-0.58402 -0.32799,-0.34214 -1.1394,-0.73131 -8.46821,4.4031 -13.04311,3.2032 -8.7678,9.51528 0,0 9.82038,-5.43563 9.82038,-5.43563 z" />
      <path
         style="fill:#808080;stroke-width:0.264583"
         id="path359"
         d="m 192.05951,202.27609 c -0.74452,-2.47233 -2.35223,-4.53134 -3.34581,-6.88401 -0.0414,-0.1953 -0.18416,-0.39554 -0.12402,-0.58591 0.031,-0.0983 0.39813,-0.0537 0.30941,-0.001 -3.10589,1.84162 -6.25807,3.60412 -9.39673,5.38935 -0.078,0.0444 0.12305,-0.17228 0.2126,-0.16551 0.29981,0.0227 0.79495,0.48123 0.97764,0.62646 1.16115,1.19905 2.17783,2.5566 3.03564,3.98923 0.3272,0.64266 0.52139,1.33217 0.79286,1.99865 0,0 9.98731,-5.16429 9.98731,-5.16429 v 0 c -0.29517,-0.71526 -0.51387,-1.45869 -0.88559,-2.1409 -0.91465,-1.52797 -2.01291,-2.94412 -3.18867,-4.27816 -0.12439,-0.1261 -1.6014,-1.60337 -1.80614,-1.5057 -5.98352,2.85422 -11.47533,2.34943 -9.84591,7.01158 1.07597,2.30209 2.64355,4.36773 3.3103,6.85488 0,0 9.96711,-5.1446 9.96711,-5.1446 z" />
      <path
         style="fill:#666666;stroke-width:0.264583"
         id="path361"
         d="m 190.38247,202.01512 c -0.99727,1.23921 -0.49228,0.58518 -1.50855,1.96704 0,0 10.38069,-4.08172 10.38069,-4.08172 v 0 c 1.05918,-1.42351 0.55352,-0.71071 1.51978,-2.13638 0,0 -10.39192,4.25106 -10.39192,4.25106 z" />
      <path
         style="fill:#333333;stroke-width:0.264583"
         id="path415"
         d="m 95.982459,225.9936 c -1.981797,1.2691 -3.87909,2.63619 -5.513136,4.33866 -1.29644,0.91899 -1.785068,2.22592 -2.061021,3.72497 -0.25495,1.51199 -0.357143,2.87701 0.556614,4.16838 0.861513,0.77307 2.35902,1.57012 3.538723,0.95137 3.592017,-1.88398 7.091843,-3.93874 10.637771,-5.90811 2.25432,-1.5841 2.85674,-2.98198 3.43575,-5.58768 1.35747,-6.89395 -9.090126,-2.27398 -11.199548,2.96044 -0.670257,1.96253 -1.238169,3.94384 -1.613213,5.98454 -0.483357,1.85188 0.384549,3.27144 1.421958,4.719 0,0 9.860473,-5.39868 9.860473,-5.39868 v 0 c -0.91514,-1.25428 -1.5293,-2.27062 -1.04879,-3.88033 0.39511,-1.9337 0.89354,-3.88074 1.81322,-5.63837 3.40291,-3.67663 -9.474695,8.42095 -9.394113,3.87752 0.001,-0.064 0.07025,0.11312 0.07462,0.17699 0.04206,0.61547 -0.06231,1.06707 -0.150524,1.68818 -0.694856,2.38038 -1.697238,3.47769 -3.726729,4.88572 2.95751,-1.53024 5.872958,-3.14467 8.872519,-4.59072 0.26865,-0.12952 -0.38278,0.47587 -0.64222,0.62299 -0.57814,0.32786 -1.482472,-0.0893 -2.018523,-0.30976 -0.79973,-0.84629 -0.262873,-2.2379 -0.124561,-3.25498 0.402578,-1.32337 1.207741,-2.24566 2.268464,-3.12405 1.72732,-1.55802 3.58726,-2.93086 5.61585,-4.07897 0,0 -10.603578,3.67289 -10.603578,3.67289 z" />
      <path
         style="fill:#333333;stroke-width:0.264583"
         id="path417"
         d="m 91.710342,241.97799 c -0.421957,4.87105 -0.697709,9.75313 -1.00363,14.63247 -0.289945,2.97911 0.06168,6.08776 -1.233134,8.85828 -0.796866,1.87429 -1.662543,3.68313 -2.930624,5.28862 -1.009715,1.30493 -2.143983,2.44039 -3.545685,3.31404 -4.555754,1.91691 11.291553,-6.5663 8.635,-4.65868 -3.13921,2.25419 -6.845647,3.59654 -10.16919,5.56887 -0.296011,0.17567 0.120636,0.93667 0.628466,1.40396 0.178048,0.16381 0.44062,0.20002 0.660929,0.30004 1.033314,0.21943 2.098889,0.16053 3.051986,-0.35459 9.005497,-4.86696 9.726913,-3.5635 13.331694,-9.51445 2.196686,-4.06411 3.336186,-8.55259 4.473536,-12.9965 1.02367,-2.59821 1.42095,-5.34125 1.69992,-8.10049 0.0709,-2.66929 0.8362,-5.19387 1.59115,-7.72546 0.45339,-1.24652 0.7652,-2.53625 1.36516,-3.72603 0.13298,-0.2637 0.71352,-0.89706 0.45039,-0.76297 -9.127161,4.65112 -10.708387,8.6463 -9.336736,5.22454 0.901766,3.44213 0.574222,7.07924 0.156348,10.56341 -0.92782,4.56438 -1.542203,9.29304 -3.511749,13.55469 0,0 10.250697,-4.3164 10.250697,-4.3164 v 0 c 1.68097,-4.41885 2.34625,-9.13167 3.21852,-13.75793 0.47691,-3.78726 0.90081,-7.78361 -0.26123,-11.49345 -6.15757,-8.92246 -11.401847,5.16742 -12.561016,9.15073 -0.777891,2.58462 -1.387505,5.19631 -1.501318,7.90774 -0.318769,2.70689 -0.866597,5.35041 -1.721761,7.94305 -1.072935,4.35201 -2.177797,8.75313 -4.54458,12.61729 -0.455585,0.62371 -0.864031,1.28474 -1.366753,1.87115 -0.381345,0.44481 -1.81373,1.43999 -1.274847,1.21005 2.927561,-1.24924 5.673277,-2.88792 8.524152,-4.30341 0.709814,-0.35243 -3.358307,1.81354 -2.540824,0.95334 -0.149523,-0.005 -0.359894,-0.13423 -0.44868,-0.0131 -0.568096,0.77084 0.461682,0.42986 0.270955,0.53342 -3.12912,1.69897 -12.611331,6.61726 -9.436294,5.00569 3.503266,-1.77812 6.959291,-3.64811 10.421144,-5.50558 0.191128,-0.10255 0.355796,-0.2482 0.533693,-0.3723 1.280378,-1.07152 2.421857,-2.24965 3.378897,-3.62869 1.15803,-1.73251 2.039806,-3.61783 2.817324,-5.54873 0.968078,-2.93908 0.693178,-6.04386 0.900918,-9.09661 0.25159,-4.89347 0.53076,-9.79658 1.22947,-14.65013 0,0 -10.202315,4.6248 -10.202315,4.6248 z" />
      <path
         style="fill:#333333;stroke-width:0.264583"
         id="path419"
         d="m 106.54761,220.67875 c -6.25697,1.35134 -11.985417,4.64311 -17.128388,8.4012 -1.487879,1.31536 -2.640446,2.94395 -4.338397,4.00246 -0.246769,0.10492 -0.493541,0.20984 -0.740312,0.31477 0,0 10.619074,-3.64669 10.619074,-3.64669 v 0 c 0.22765,-0.15145 0.455299,-0.30291 0.682951,-0.45438 1.495009,-1.25908 2.704114,-2.82441 4.301928,-3.96667 3.197924,-2.14003 8.981084,-5.22531 -6.460068,3.10058 -0.429001,0.23131 0.898696,-0.37857 1.356642,-0.54541 0.443457,-0.16156 0.893196,-0.3063 1.346058,-0.43923 0.390857,-0.11472 0.789198,-0.20223 1.183795,-0.30333 0,0 9.176717,-6.4633 9.176717,-6.4633 z" />
      <path
         style="fill:#333333;stroke-width:0.264583"
         id="path423"
         d="m 106.61404,219.8821 c -2.52975,0.17474 -5.03195,0.59637 -7.553242,0.85448 -1.571249,0.0386 -3.094516,0.42716 -4.641774,0.65084 -0.827314,0.0784 -1.620875,0.33761 -2.428097,0.52166 0,0 -9.200799,6.47792 -9.200799,6.47792 v 0 c 0.817908,-0.11375 1.625075,-0.26705 2.39161,-0.58865 1.583729,-0.13251 3.095875,-0.59368 4.676513,-0.6987 2.511526,-0.22481 4.994082,-0.68883 7.508109,-0.85259 0,0 9.24768,-6.36496 9.24768,-6.36496 z" />
      <path
         style="fill:#333333;stroke-width:0.264583"
         id="path473"
         d="m 163.13109,270.95721 c -2.68836,-1.01242 -5.46676,-1.67409 -8.29845,-2.12133 -2.63204,-0.17655 -5.24619,0.28791 -7.85694,0.55486 -2.68581,0.15799 -5.37536,0.25535 -8.06365,0.38656 -2.457,0.0642 -4.90707,0.32942 -7.33953,0.67289 -4.78889,0.85266 -8.36332,3.58203 -12.76684,6.24907 -0.1791,0.10849 -0.0895,0.42997 -0.021,0.62786 0.10737,0.31017 0.35099,0.55475 0.52649,0.8321 0.27681,0.13337 0.52791,0.34632 0.83043,0.40009 1.58789,0.28219 4.60101,-1.19396 6.05611,-1.82674 5.1565,-2.04135 9.87115,-4.85921 14.77016,-7.49427 1.41375,-0.81631 2.63926,-1.86883 4.06955,-2.66111 3.55563,-2.7547 13.09105,-7.51183 -3.85088,1.51942 1.04478,-0.56516 2.13934,-1.03613 3.261,-1.42594 0.19317,-0.0671 0.41506,-0.0679 0.58693,-0.17868 0.15016,-0.0968 -0.23154,-0.28446 -0.38915,-0.36862 -0.17241,0.0616 -0.35809,0.094 -0.51721,0.18447 -0.21004,0.1194 -1.26505,0.9679 -1.40572,1.06635 -0.79906,0.55923 -1.69195,0.9469 -2.55211,1.39898 2.92167,-1.55943 5.85426,-3.09851 8.765,-4.67826 0.35273,-0.19145 -0.72833,0.33743 -1.08946,0.51249 -0.36502,0.17694 -0.73182,0.35088 -1.08884,0.54344 -3.57025,1.92559 -7.13934,3.85358 -10.69241,5.81072 -1.12599,0.72295 -0.56233,0.39676 -1.68644,0.98641 16.90461,-8.62641 9.51168,-4.45746 5.05006,-3.64551 -1.27302,0.48337 -4.14089,0.25197 -5.18751,0.75379 -10.82553,5.19074 -8.46099,2.91639 -12.36415,7.12926 -0.90107,1.2221 -1.87752,2.36949 -3.13007,3.24421 -0.34464,0.24066 -1.45088,0.84871 -1.07935,0.65208 10.0086,-5.29682 11.6507,-5.99923 7.81945,-4.29628 -1.92567,0.67075 -3.98776,0.60717 -5.99777,0.55949 -1.62418,-0.0564 -3.24701,-0.14531 -4.87044,-0.21921 -1.67648,-0.0534 -3.35223,-0.16879 -5.02986,-0.16284 -1.06223,0.14663 -2.17287,0.35731 -3.13347,0.86357 -10.51236,5.54037 -7.937555,2.51038 -10.847724,6.0961 -1.011988,1.65945 0.146232,3.15963 1.474748,4.16788 1.555636,0.94153 3.402816,1.03861 5.149016,1.3716 2.10498,0.44376 4.24997,0.6233 6.39131,0.78303 1.80991,0.12986 3.62333,0.19491 5.43641,0.26064 2.18779,0.069 4.37535,0.14464 6.56263,0.2282 2.51902,0.0762 5.03733,0.17156 7.55547,0.27242 2.17721,0.17143 4.29817,0.18348 6.43556,-0.28267 1.93232,-0.56187 3.88844,-1.03309 5.8092,-1.63409 1.61208,-0.55624 3.24254,-1.04716 4.81929,-1.69995 1.59716,-0.76969 3.29086,-1.2111 5.04262,-1.4248 1.54732,-0.20402 3.07711,-0.48835 4.63491,-0.60998 1.59722,-0.17387 3.16975,-0.47375 4.77551,-0.58069 1.82186,-0.0125 3.49571,-0.59716 5.17288,-1.2319 5.04522,-2.12301 10.32026,-4.27564 14.20125,-8.18857 0.63177,-0.68732 1.02416,-1.52649 1.44142,-2.34886 0,0 -10.38046,4.23533 -10.38046,4.23533 v 0 c -0.45232,0.73586 -0.90292,1.4573 -1.56613,2.02914 -0.62998,0.55281 -0.72323,0.67041 -1.41712,1.13783 -0.26277,0.17703 -1.08891,0.64687 -0.80756,0.50122 15.95887,-8.26086 10.96534,-5.85373 7.5989,-3.97352 -1.65887,0.55346 -3.19667,1.41899 -4.98583,1.50413 -1.60609,0.0459 -3.20438,0.16049 -4.7679,0.56201 -1.5695,0.0582 -3.13191,0.21006 -4.66181,0.58358 -1.80964,0.10915 -3.59847,0.3882 -5.26585,1.14198 -1.54775,0.70979 -3.13449,1.28007 -4.76764,1.76049 -1.87908,0.74594 -3.86479,1.11562 -5.78702,1.73149 -2.06746,0.64684 -4.08605,0.77072 -6.24349,0.55032 -2.51664,-0.0831 -5.03306,-0.17149 -7.54878,-0.27919 -2.18134,-0.0738 -4.36243,-0.15464 -6.54327,-0.24241 -1.8114,-0.0663 -3.62316,-0.12758 -5.43339,-0.2213 -2.11101,-0.12526 -4.22815,-0.26338 -6.30726,-0.67117 -1.63251,-0.32207 -3.30982,-0.46698 -4.88324,-1.01077 -1.06213,-0.59496 -1.74485,-1.39839 -0.58765,-2.34266 3.3948,-2.21656 1.03684,-0.65399 -8.729288,4.50734 -0.221404,0.117 0.457065,-0.20512 0.681163,-0.31689 1.199622,-0.59835 0.151229,-0.1813 1.485839,-0.60402 0.250633,-0.0794 0.498416,-0.16752 0.747626,-0.25125 1.6316,-0.27332 3.3038,0.0575 4.95099,0.0455 1.63304,0.0698 3.26565,0.14841 4.89861,0.21946 2.08391,0.0732 4.19431,0.16346 6.25564,-0.21211 6.33852,-1.94144 11.72736,-5.15134 15.84334,-10.09172 3.27859,-2.70727 3.83266,-3.00844 -7.14649,3.15752 -0.44221,0.24836 0.98811,-0.23573 1.49029,-0.30696 0.47037,-0.0667 0.94754,-0.0708 1.42131,-0.10605 0.41438,-0.0427 0.83082,-0.0687 1.24314,-0.12803 0.31596,-0.0455 0.62627,-0.12402 0.93943,-0.18603 5.53363,-0.65781 9.69305,-3.48645 14.73885,-6.44723 0.91761,-0.56309 1.91326,-1.17069 1.64141,-1.03202 -2.948,1.50366 -5.86228,3.07256 -8.79774,4.60056 -0.70972,0.36943 1.42799,-0.72226 2.13882,-1.08949 3.60989,-1.86507 7.20868,-3.75154 10.81301,-5.6273 1.51375,-0.83235 3.4996,-1.93414 4.20598,-3.56533 -0.11158,-0.52707 -0.11178,-1.23307 -0.72287,-1.51815 -0.69378,-0.32365 -3.42817,1.05322 -4.13334,1.33953 -5.35584,2.8479 -10.72706,5.3995 -15.66719,8.87081 -1.37597,0.88041 -2.66245,1.89472 -4.09221,2.69313 17.61234,-9.27076 9.03475,-4.50523 4.80846,-2.85541 -1.23212,0.5416 -2.43768,1.12886 -3.70258,1.59226 -0.64304,0.23557 -1.335,0.33797 -1.95788,0.62258 -0.14385,0.0658 -0.23846,0.20786 -0.35769,0.31178 0.0328,0.35723 -0.0684,0.28937 0.24995,0.26682 -3.10771,1.635 -6.21543,3.26999 -9.32315,4.90498 -0.23177,0.12011 0.42758,-0.30393 0.66274,-0.41727 0.57904,-0.27916 1.04566,-0.34177 1.66837,-0.4779 2.39133,-0.54333 4.89606,-0.67861 7.33421,-0.85189 2.67635,-0.12014 5.34569,-0.25417 8.02352,-0.29123 2.58845,-0.2386 5.15357,-0.70024 7.75311,-0.81069 2.7656,0.37066 5.50514,0.90727 8.10221,1.96393 0,0 9.50962,-5.95643 9.50962,-5.95643 z" />
      <path
         style="fill:#333333;stroke-width:0.264583"
         id="path475"
         d="m 110.1933,286.31418 c 4.71933,0.1021 9.43657,0.29102 14.15283,0.48669 3.22921,0.16938 6.46903,0.17981 9.69232,0.44568 2.39622,0.23987 4.69093,1.16474 7.10838,1.24866 0.58205,0.0213 1.1643,-0.037 1.74645,-0.0555 2.93202,-0.31961 5.66856,-1.41487 8.39209,-2.47522 1.69737,-0.68535 0.85762,-0.33243 2.51953,-1.05807 0,0 8.95785,-6.64443 8.95785,-6.64443 v 0 c -1.62954,0.77562 -0.80192,0.4073 -2.48331,1.10387 -2.69483,1.07601 -5.37474,2.21416 -8.2361,2.77955 -0.54347,0.0622 -1.08369,0.16906 -1.63042,0.18639 -2.4113,0.0765 -4.72609,-0.89242 -7.08015,-1.24363 -3.25355,-0.39736 -6.54932,-0.25232 -9.81854,-0.44909 -4.68936,-0.14873 -9.37933,-0.30273 -14.06488,-0.54571 0,0 -9.25605,6.22089 -9.25605,6.22089 z" />
      <path
         style="fill:#333333;stroke-width:0.264583"
         id="path477"
         d="m 108.86464,286.28758 c 3.65145,0.074 7.30109,0.21503 10.95043,0.35611 3.44818,0.1292 6.89605,0.26901 10.34465,0.38648 3.42025,0.11716 6.83974,0.25525 10.25979,0.37838 2.86438,-0.0332 5.73723,-0.0934 8.59493,-0.30711 0.90935,-0.0928 1.81149,-0.23027 2.71084,-0.39082 0,0 9.13453,-6.53219 9.13453,-6.53219 v 0 c -0.86869,0.30136 -1.74045,0.42817 -2.6533,0.54843 -2.82779,0.4123 -5.71892,0.29121 -8.56656,0.48473 -3.42165,-0.12818 -6.84388,-0.24039 -10.26536,-0.37257 -3.45529,-0.13542 -6.9115,-0.24787 -10.36727,-0.37131 -3.60901,-0.12506 -7.21843,-0.24818 -10.82464,-0.44067 0,0 -9.31812,6.26264 -9.31812,6.26264 z" />
      <path
         style="fill:#333333;stroke-width:0.264583"
         id="path479"
         d="m 140.06404,284.27439 c 3.13934,-0.95642 6.40928,-1.3058 9.66983,-1.52479 2.20377,-0.0797 1.1053,-0.053 3.29541,-0.0805 0,0 9.19588,-6.23888 9.19588,-6.23888 v 0 c -2.21218,0.004 -1.10215,-0.009 -3.3301,0.0378 -3.26873,0.15013 -6.5375,0.47645 -9.7241,1.25081 0,0 -9.10692,6.55558 -9.10692,6.55558 z" />
      <path
         style="fill:#333333;stroke-width:0.264583"
         id="path481"
         d="m 129.17879,289.30016 c 2.82674,0.0595 5.65203,0.17683 8.477,0.29114 2.07644,0.082 4.15296,0.16221 6.22942,0.24352 1.58491,0.062 3.16992,0.12099 4.75495,0.17998 1.60924,0.13072 3.19827,-0.19407 4.79567,-0.33036 1.86582,-0.14114 3.73447,-0.025 5.59762,-0.19772 1.59591,-0.23215 3.20581,-0.29405 4.81233,-0.40028 1.52283,-0.25915 3.06721,-0.36944 4.58573,-0.64957 5.21947,-1.00372 10.02723,-3.86345 14.23106,-7.06456 1.47879,-0.88727 2.99071,-1.74449 4.30333,-2.87291 1.33579,-1.48637 1.28483,-3.47197 1.39422,-5.35397 0.19257,-4.5086 -0.0444,-9.02453 -0.29685,-13.52641 -0.34324,-5.36529 -0.62565,-10.72769 -0.70296,-16.10413 0.006,-5.71578 -0.17421,-11.42873 -0.16531,-17.14509 0.0387,-3.26341 0.0142,-1.6513 0.0729,-4.83632 0,0 -9.97943,4.66019 -9.97943,4.66019 v 0 c -0.0337,3.18524 -0.024,1.57369 -0.0281,4.83468 0.0239,5.71198 0.22924,11.42079 0.21268,17.13288 0.0263,5.4049 0.36157,10.79184 0.64704,16.18783 0.25747,4.46962 0.47919,8.96719 0.11891,13.43671 -0.19514,1.74026 -0.29733,3.44809 -1.83901,4.53544 -1.41096,0.97277 -2.85805,1.87869 -4.29223,2.81528 -3.66388,2.37487 -1.16917,0.72276 8.26146,-4.23428 0.20969,-0.11022 -0.42546,0.20887 -0.63286,0.32335 -0.6841,0.37754 -1.31887,0.70543 -2.12854,0.73268 -1.50854,0.31393 -3.01901,0.47069 -4.54225,0.71165 -1.58249,0.30517 -3.22679,0.10937 -4.81748,0.42169 -1.85611,0.25096 -3.69534,0.23069 -5.56772,0.23838 -1.58388,0.0819 -3.141,0.37809 -4.71535,0.41803 -1.59016,-0.0582 -3.18044,-0.11335 -4.77072,-0.16852 -2.09124,-0.0715 -4.18248,-0.14398 -6.27379,-0.21394 -2.80826,-0.0921 -5.61712,-0.18007 -8.42312,-0.32718 0,0 -9.31813,6.26259 -9.31813,6.26259 z" />
      <path
         style="fill:#333333;stroke-width:0.264583"
         id="path483"
         d="m 179.15014,279.99352 c -4.3871,0.10037 -8.68043,-0.60006 -12.85882,-1.88254 -1.31497,-0.46255 -2.61333,-0.99161 -3.81948,-1.6968 -0.28669,-0.16759 -0.58023,-0.33155 -0.83171,-0.54843 -0.0681,-0.0587 -0.0197,-0.29894 -0.0965,-0.25208 -2.96971,1.8121 -5.84531,3.77408 -8.76796,5.66112 0.50263,-0.12702 1.00526,-0.25404 1.50791,-0.38108 0,0 9.12364,-6.36031 9.12364,-6.36031 v 0 c -0.53967,0.0134 -1.07934,0.0268 -1.619,0.04 -3.3969,2.11006 -6.94283,3.99722 -10.19067,6.33021 -0.21822,0.15674 0.22948,0.49944 0.42227,0.6866 1.24622,1.20986 3.37478,1.75941 4.90558,2.46746 4.2092,1.28398 8.50947,2.10863 12.92732,2.1845 0,0 9.29743,-6.24872 9.29743,-6.24872 z" />
      <path
         style="fill:#333333;stroke-width:0.264583"
         id="path485"
         d="m 186.79192,273.33978 c -0.4472,-2.43486 -0.96666,-5.36033 -3.01876,-6.97618 -3.50539,1.83396 -7.14479,3.43185 -10.51616,5.5019 -0.33273,0.20429 -0.20296,0.75418 -0.29203,1.13435 -0.37293,1.59162 -0.60968,3.17024 -0.60858,4.80402 -0.11822,0.92827 0.65472,3.45014 -0.0896,4.15245 -0.12883,0.12158 -0.32932,0.13052 -0.49399,0.19578 -4.08163,0.80673 0.009,0.06 8.61509,-4.80109 0.25488,-0.14393 -0.56708,0.15 -0.85652,0.19363 -0.89111,0.13439 -1.71526,0.0947 -2.59208,-0.0718 -1.22625,-0.52438 -1.06351,-0.65922 -0.33709,-1.6382 1.69996,-2.29102 -0.3094,0.31332 1.84773,-2.44283 1.76053,-1.91946 0.85148,-1.00224 2.72391,-2.75486 0,0 -10.37065,3.88583 -10.37065,3.88583 v 0 c -1.82993,1.85636 -0.93501,0.88719 -2.67982,2.912 -1.46935,1.97454 -3.54174,4.30934 -0.64976,6.07534 5.17165,1.87715 11.30706,-2.02585 14.81526,-5.37803 0.69873,-1.62629 0.2211,-3.3383 0.20591,-5.05634 0.0616,-1.46354 0.19357,-3.07527 0.78096,-4.43978 1.47601,-3.42856 9.9817,-5.18862 -9.08646,3.62932 0.14346,-0.006 0.31682,-0.10671 0.43038,-0.0188 1.32493,1.02538 1.88913,4.36943 2.04269,5.93321 0,0 10.12952,-4.83992 10.12952,-4.83992 z" />
      <path
         style="fill:#4d4d4d;stroke-width:0.264583"
         id="path489"
         d="m 138.12891,267.22171 c -2.35648,0.39646 -4.65448,1.05594 -7.00695,1.47159 -1.45431,0.28622 -2.87038,0.69491 -4.34545,0.86858 -1.48632,0.0183 -2.94809,0.22348 -4.4181,0.41934 -1.49026,0.19204 -2.99404,0.19711 -4.49367,0.18012 -1.59419,-0.003 -3.15956,0.31268 -4.68769,0.73981 -4.39807,1.71061 -0.6046,0.2023 -11.17862,5.83981 -3.057243,1.62996 12.19948,-6.5733 9.17791,-4.87815 -3.42279,1.92022 -6.92137,3.70208 -10.38182,5.55357 -0.1859,0.0994 -0.74339,0.39827 -0.55724,0.29925 3.09016,-1.64332 6.1795,-3.28817 9.26926,-4.93229 -4.66074,1.75251 -8.79795,4.33315 -13.261597,6.69542 -1.058018,0.91215 -1.623427,1.8774 -1.952114,3.23151 -0.150756,0.94795 -0.470299,1.85529 -0.689162,2.79051 0,0 10.287423,-4.5193 10.287423,-4.5193 v 0 c 0.24096,-0.91087 0.49442,-1.81812 0.73296,-2.72966 0.4478,-1.07884 1.22361,-1.88913 2.25273,-2.45353 -17.708549,9.27932 -10.32924,4.91323 -6.40971,3.68776 3.4681,-1.81593 6.94168,-3.62145 10.40432,-5.44777 0.18701,-0.0986 0.73118,-0.4244 0.54374,-0.32659 -3.08955,1.61208 -12.340289,6.48252 -9.25102,4.86989 3.49204,-1.82286 6.94433,-3.72247 10.45934,-5.50065 3.08235,-1.55932 -6.09376,3.2555 -9.16121,4.84396 -0.22513,0.11658 0.41999,-0.2841 0.62997,-0.42617 1.43464,-0.57904 2.92954,-0.85138 4.45928,-1.05337 1.5261,0.0386 3.05592,0.0717 4.57913,-0.0555 1.47033,-0.14785 2.90666,-0.51817 4.39045,-0.44571 1.51446,-0.0755 2.99455,-0.30974 4.42919,-0.82347 2.36838,-0.33986 4.64989,-1.03187 7.00193,-1.4357 0,0 9.17672,-6.46329 9.17672,-6.46329 z" />
      <path
         style="fill:#4d4d4d;stroke-width:0.264583"
         id="path491"
         d="m 129.03141,272.65271 c 2.65089,0.0595 5.30025,0.17334 7.94994,0.27105 2.24732,0.0782 4.49404,0.17243 6.74092,0.26204 1.59243,0.0633 3.18502,0.12253 4.77761,0.1818 1.50456,0.055 3.00911,0.11032 4.51366,0.16534 1.50923,0.0552 3.01844,0.11037 4.52765,0.16556 0.75542,0.0276 1.51083,0.0553 2.26625,0.0829 0,0 9.32475,-6.26706 9.32475,-6.26706 v 0 c -0.75542,-0.0276 -1.51082,-0.0553 -2.26623,-0.0829 -1.50914,-0.0552 -3.01826,-0.11047 -4.52739,-0.16576 -1.50473,-0.0551 -3.00945,-0.11033 -4.51419,-0.16495 -1.59874,-0.0585 -3.1976,-0.11402 -4.7965,-0.16843 -2.26158,-0.0757 -4.52333,-0.14649 -6.78452,-0.23291 -2.6315,-0.0963 -5.26392,-0.17486 -7.89386,-0.30862 0,0 -9.31811,6.26262 -9.31811,6.26262 z" />
      <path
         style="fill:#333333;stroke-width:0.264583"
         id="path495"
         d="m 142.97729,227.25459 c -1.72945,1.82776 -3.17157,3.89906 -4.6654,5.91805 -0.71001,1.35382 -1.92023,2.33643 -2.63695,3.6732 -0.91664,0.93123 -1.15533,2.19308 -1.34499,3.43571 -0.12556,1.39431 -0.16463,2.75187 -0.53356,4.1037 -0.42031,1.19002 -0.90087,2.19593 -1.15658,3.46379 -0.24038,1.44037 -0.29973,2.9024 -0.36415,4.35882 -0.0603,1.51283 -0.10969,3.02609 -0.16204,4.53922 -0.0867,1.49372 -0.15363,2.95452 0.10074,4.43126 0.25534,1.26496 1.16259,2.01992 1.93703,2.95317 0.73752,0.77799 1.33743,1.64384 1.92539,2.53253 0.86958,1.14934 2.17329,1.50429 3.52612,1.73765 1.5216,0.25499 3.03501,0.21588 4.55648,0.0177 1.49591,-0.22864 3.00699,-0.2884 4.51772,-0.29879 1.50908,0.005 3.01732,0.0633 4.52522,0.11832 1.51086,0.0553 3.02162,0.11352 4.53244,0.16984 1.51094,0.0553 3.02188,0.11053 4.53282,0.16584 1.49464,0.0417 2.98818,0.1383 4.48359,0.13816 1.33101,-0.19496 2.66137,-0.3654 4.00049,-0.49792 0.2443,-0.042 0.48861,-0.0839 0.7329,-0.1259 0,0 9.1867,-6.47216 9.1867,-6.47216 v 0 c -0.23917,0.0477 -0.47835,0.0954 -0.7175,0.14319 -1.2966,0.30623 -2.66186,0.17258 -3.95376,0.55377 -1.44108,0.30178 -2.94399,-0.0459 -4.40766,-0.006 -1.51081,-0.0553 -3.02165,-0.11052 -4.53245,-0.16634 -1.51083,-0.056 -3.02165,-0.11252 -4.53243,-0.16983 -1.51527,-0.0575 -3.03056,-0.11787 -4.54663,-0.14967 -1.53673,-0.0204 -3.07809,-0.0209 -4.60559,0.17374 -1.46665,0.20044 -2.89229,0.48181 -4.37853,0.22582 -1.05055,-0.1029 -2.23457,-0.14099 -3.02098,-0.9345 -0.61841,-0.90176 -1.18085,-1.83145 -1.96587,-2.60783 -0.6241,-0.82217 -1.4925,-1.34243 -1.68568,-2.43793 -0.20685,-1.40563 -0.0594,-2.81307 -0.0212,-4.22796 0.0522,-1.50873 0.10036,-3.01769 0.16963,-4.52577 0.0738,-1.39729 0.1418,-2.80574 0.4642,-4.17256 0.3343,-1.17686 0.92797,-2.25608 1.15627,-3.46483 0.2864,-1.37125 0.25571,-2.77255 0.51064,-4.14957 0.27293,-1.15565 0.78076,-2.11555 1.51542,-3.04943 0.88995,-1.17897 1.82001,-2.32831 2.61128,-3.58026 1.46138,-2.00625 2.91438,-4.04925 4.75889,-5.72744 0,0 -10.51213,3.9104 -10.51213,3.9104 z" />
      <path
         style="fill:#333333;stroke-width:0.264583"
         id="path497"
         d="m 131.72152,281.82863 c 2.50273,0.0537 5.00388,0.16243 7.50502,0.26347 1.52542,0.0249 3.03796,-0.22976 4.54917,-0.40912 4.80149,-0.97956 8.88686,-3.93676 13.09433,-6.38292 -17.18679,9.04838 -10.48516,4.95662 -6.21056,3.89927 1.28339,-0.3272 2.53098,-0.71447 3.85002,-0.87915 1.40542,-0.15737 2.82038,0.002 4.22252,-0.16855 1.24762,-0.11443 2.42997,-0.47945 3.63455,-0.79095 0.90228,-0.2025 0.45204,-0.0889 1.35054,-0.3413 0,0 9.13599,-6.55179 9.13599,-6.55179 v 0 c -0.88989,0.23752 -0.45704,0.10496 -1.29949,0.39464 -1.24228,0.19235 -2.35647,0.72373 -3.6114,0.82741 -0.41384,0.0875 -0.81925,0.23068 -1.24075,0.2662 -0.96948,0.0817 -1.96567,-0.13696 -2.93763,-0.0219 -1.34494,0.0672 -2.68388,0.2099 -3.92286,0.78226 -4.96699,0.7385 -9.37524,4.10917 -13.61004,6.28431 -3.4498,2.0817 -1.42399,0.84626 8.92339,-4.6266 0.16732,-0.0885 -0.35369,0.13617 -0.52397,0.21881 -1.00363,0.48703 0.0603,0.10944 -1.09753,0.40369 -0.1964,0.05 -0.38868,0.11483 -0.58301,0.17224 -1.4043,0.48158 -2.9878,0.34504 -4.43634,0.68183 -2.4917,-0.0822 -4.98403,-0.15511 -7.47382,-0.28455 0,0 -9.31813,6.26263 -9.31813,6.26263 z" />
      <path
         style="fill:#333333;stroke-width:0.264583"
         id="path499"
         d="m 136.39737,281.11443 c 2.39684,-0.78055 4.8984,-1.12299 7.34158,-1.71224 1.41982,-0.26245 2.73688,-0.86019 4.13972,-1.18044 1.31721,-0.19631 2.63653,-0.19686 3.94731,-0.44355 1.33218,-0.28368 2.6948,-0.29022 4.04875,-0.34581 1.23938,-0.17054 2.46088,-0.3922 3.657,-0.75699 0.56186,-0.21246 1.20326,-0.19323 1.74459,-0.46972 3.46988,-1.7723 6.91393,-3.59474 10.36947,-5.39485 0.16351,-0.0852 0.65057,-0.34725 0.48764,-0.26097 -3.11229,1.64816 -6.22383,3.29773 -9.33575,4.94662 0.31764,-0.24366 0.74143,-0.2273 1.08374,-0.40488 3.47453,-1.80272 6.93967,-3.6242 10.37877,-5.49361 0.20598,-0.11195 0.35368,-0.30912 0.5452,-0.44433 0.1952,-0.13782 0.82335,-0.48489 0.61225,-0.37292 -3.05643,1.62106 -6.09951,3.26718 -9.14926,4.90076 0.21381,-0.10602 0.42762,-0.21205 0.64143,-0.31807 0,0 9.05893,-6.65182 9.05893,-6.65182 v 0 c -0.23758,0.074 -0.47515,0.14812 -0.71272,0.22218 -3.47971,1.86066 -6.97157,3.69886 -10.43916,5.58203 -0.41498,0.22535 -1.6101,0.98464 -1.19094,0.7672 3.11151,-1.61418 6.20816,-3.25684 9.31505,-4.87989 0.1653,-0.0863 -0.3152,0.20525 -0.4902,0.26972 -0.19107,0.0704 -0.39783,0.0871 -0.59673,0.13062 -3.45833,1.79963 -6.9174,3.59782 -10.375,5.39883 -2.96514,1.54452 5.94988,-3.05149 8.90466,-4.61572 0.17194,-0.091 -0.36688,0.12949 -0.55034,0.19425 -0.17349,0.0806 -0.337,0.1875 -0.52048,0.2415 -0.20426,0.0601 -0.42085,0.0649 -0.63128,0.0974 -1.20555,0.28293 -2.33312,0.7544 -3.58062,0.87642 -1.32537,0.32642 -2.72682,0.0329 -4.07249,0.30664 -1.32097,0.22586 -2.58654,0.53362 -3.94446,0.45499 -1.48882,0.17077 -2.80347,0.73302 -4.22961,1.13478 -2.43355,0.64217 -4.91255,1.03201 -7.35015,1.66621 0,0 -9.1069,6.55561 -9.1069,6.55561 z" />
      <path
         style="fill:#333333;stroke-width:0.264583"
         id="path503"
         d="m 113.18614,283.39533 c -1.27676,-1.7396 -2.80067,-3.68004 -2.79989,-5.93181 -1.05917,-0.0228 1.55915,-1.3364 1.18107,-1.12724 -17.428059,9.6416 -11.623736,5.42734 -7.97316,4.62624 1.50044,-0.20406 3.01577,-0.0607 4.52304,-0.0675 1.52094,-0.16026 3.03635,-0.33847 4.56512,-0.40564 1.50586,-0.0469 3.01238,0.002 4.5175,0.0502 1.71834,0.0513 3.43607,0.12071 5.15382,0.18856 0,0 9.31711,-6.26085 9.31711,-6.26085 v 0 c -1.71601,-0.0628 -3.43213,-0.12255 -5.14775,-0.19535 -1.5186,-0.0555 -3.03772,-0.11418 -4.55766,-0.10873 -1.53817,0.0222 -3.07593,0.10197 -4.59448,0.36544 -1.50658,0.22474 -3.0323,-0.0823 -4.55211,0.01 -4.79698,0.24406 -5.01634,1.80665 -11.82654,5.65322 -0.64495,0.36428 -0.67057,1.51661 -0.72939,2.11208 0.32884,2.44751 1.7167,4.53461 3.10287,6.52881 0,0 9.82038,-5.43565 9.82038,-5.43565 z" />
      <path
         style="fill:#333333;stroke-width:0.264583"
         id="path505"
         d="m 107.55219,283.84136 c 2.30299,-0.53042 4.43912,-1.51863 6.5687,-2.51208 0.44303,-0.25937 0.91798,-0.45595 1.37195,-0.6937 3.47744,-1.82101 6.89804,-3.7536 10.42353,-5.47973 3.1401,-1.53743 -12.20309,6.81126 -9.26678,4.9134 3.43315,-2.21903 7.26677,-3.75854 10.77089,-5.86372 -17.17452,7.88533 -10.68863,5.37112 -6.54868,4.04251 1.19487,-0.24575 2.33007,-0.68539 3.52778,-0.91793 1.41153,-0.21396 2.84392,-0.17948 4.26656,-0.14986 1.54256,0.0413 3.08426,0.10882 4.62647,0.16123 1.70487,0.0624 3.40959,0.12879 5.1144,0.19313 1.53996,0.0594 3.08002,0.11565 4.62007,0.17203 1.50971,0.0554 3.01941,0.11059 4.52912,0.16578 1.49679,0.072 2.99786,0.0706 4.49112,0.20014 1.50347,0.2975 3.00436,0.58688 4.5268,0.76972 1.04532,0.10112 0.50647,0.0556 1.61671,0.13411 0,0 9.33202,-6.23374 9.33202,-6.23374 v 0 c -1.08316,-0.0639 -0.55603,-0.0293 -1.58142,-0.10314 -1.5142,-0.13736 -3.02095,-0.34214 -4.49602,-0.7221 -1.49542,-0.3298 -3.04094,-0.20823 -4.56438,-0.31212 -1.50981,-0.0552 -3.01962,-0.11049 -4.52943,-0.16559 -1.54187,-0.0562 -3.08375,-0.11281 -4.62572,-0.16622 -1.70618,-0.0594 -3.41227,-0.12083 -5.11807,-0.19025 -1.54052,-0.0654 -3.08136,-0.12288 -4.62224,-0.17943 -1.45298,-0.0472 -2.90917,-0.10243 -4.36169,-0.0127 -0.63821,0.0583 -1.26923,0.11799 -1.88869,0.29373 -0.37112,0.10527 -0.70638,0.31758 -1.07811,0.42069 -0.20561,0.057 -0.42269,0.0588 -0.63403,0.0881 -0.59012,0.12827 -1.10563,0.38204 -1.67644,0.53666 -4.98542,1.35043 -0.14962,-3.6968 -11.55087,5.70965 -0.15597,0.10519 -0.63474,0.40234 -0.46788,0.31551 3.1204,-1.6238 12.44536,-6.56435 9.33152,-4.92801 -33.710715,17.71543 7.37611,-3.70553 -2.56858,1.27245 -1.99443,1.1641 -4.19513,2.11953 -6.43172,2.68616 0,0 -9.10689,6.55561 -9.10689,6.55561 z" />
      <path
         sodipodi:type="star"
         style="fill:#666666;stroke-width:0.264583"
         id="path510"
         sodipodi:sides="5"
         sodipodi:cx="156.84973"
         sodipodi:cy="217.21442"
         sodipodi:r1="5.4512501"
         sodipodi:r2="2.7256248"
         sodipodi:arg1="0.98279372"
         sodipodi:arg2="1.6111123"
         inkscape:flatsided="false"
         inkscape:rounded="0"
         inkscape:randomized="0"
         d="m 159.87354,221.75013 -3.13367,-1.8123 -3.26945,1.55401 0.75525,-3.54032 -2.48828,-2.62922 3.60044,-0.37574 1.73161,-3.17896 1.46995,3.3081 3.55847,0.66452 -2.69196,2.42026 z"
         inkscape:transform-center-x="-0.15059123"
         inkscape:transform-center-y="-0.42441513"
         transform="matrix(1.2280538,0.04493072,-0.03993928,1.0916272,-27.947194,-29.801694)" />
      <path
         sodipodi:type="star"
         style="fill:#999999;stroke-width:0.264583"
         id="path512"
         sodipodi:sides="5"
         sodipodi:cx="-132.29166"
         sodipodi:cy="109.61309"
         sodipodi:r1="9.8564138"
         sodipodi:r2="4.9282069"
         sodipodi:arg1="1.6475682"
         sodipodi:arg2="2.2758867"
         inkscape:flatsided="false"
         inkscape:rounded="0"
         inkscape:randomized="0"
         d="m -133.04761,119.44047 -2.43803,-6.07429 -6.38601,-1.43521 5.0236,-4.19577 -0.60842,-6.51697 5.54279,3.48117 6.00999,-2.59249 -1.59797,6.34724 4.3228,4.91472 -6.53039,0.44165 z"
         inkscape:transform-center-x="0.25546386"
         inkscape:transform-center-y="0.40640139"
         transform="matrix(0.76846617,0.02811581,-0.02501025,0.68358454,279.12762,151.4044)" />
      <path
         sodipodi:type="star"
         style="fill:#808080;stroke-width:0.264583"
         id="path514"
         sodipodi:sides="5"
         sodipodi:cx="-133.80357"
         sodipodi:cy="194.27975"
         sodipodi:r1="11.23804"
         sodipodi:r2="5.61902"
         sodipodi:arg1="-0.34302394"
         sodipodi:arg2="0.28529459"
         inkscape:flatsided="false"
         inkscape:rounded="0"
         inkscape:randomized="0"
         d="m -123.22024,190.49999 -5.19144,5.36118 1.4733,7.31592 -6.70302,-3.28066 -6.50258,3.66194 1.04874,-7.38873 -5.49212,-5.05272 7.35119,-1.28583 3.10826,-6.78469 3.49454,6.59405 z"
         inkscape:transform-center-x="-0.0017521049"
         inkscape:transform-center-y="-0.42067122"
         transform="matrix(0.5043532,0.01845273,-0.01506715,0.41181779,231.56528,152.85072)" />
      <path
         style="fill:#4d4d4d;stroke-width:0.264583"
         id="path532"
         d="m 104.63663,279.30832 c -0.99636,-2.49288 -2.3665,-4.63599 -4.51607,-6.26039 -1.492417,-1.00054 -3.218084,-1.30032 -4.968792,-1.46058 -5.032219,-0.37755 -7.321433,2.48543 -12.74809,5.52472 -0.204264,0.11439 -0.241171,0.40221 -0.380587,0.5903 -0.122174,0.16481 -0.268184,0.31055 -0.402276,0.46583 -0.944377,0.90876 -1.527453,2.0951 -2.346692,3.09144 -0.870229,1.07423 -1.334351,1.78693 -1.666397,3.16165 -0.136773,1.68101 0.879441,2.72232 2.199114,3.5535 1.407551,0.78891 2.898524,1.42046 4.404802,1.99408 1.269225,0.60722 2.552932,1.1109 3.930244,1.40545 1.376881,0.26689 2.751044,0.35536 4.133372,0.11809 5.354464,-2.81559 10.297462,-3.40019 12.664052,-8.49666 0.67603,-1.79851 0.75441,-3.74766 0.87757,-5.64603 0.18152,-2.1799 0.2258,-4.27611 -1.03627,-6.1391 -1.1119,-1.24409 -2.66357,-1.51548 -4.24101,-1.68334 -1.433272,-0.13279 -2.853638,-0.18165 -4.269985,0.0903 -4.177427,1.56423 -0.65308,0.21711 -10.846285,5.715 -0.60679,0.32728 -1.197107,0.93087 -1.639424,1.45323 -0.967915,0.58452 -1.462078,1.58607 -2.197592,2.38349 -0.534753,0.96912 -1.634091,1.31577 -2.399413,2.06879 -1.132927,0.62859 -1.577839,1.80268 -1.26178,3.02302 0.606319,1.17481 1.638063,1.74481 2.819935,2.21156 1.39157,0.61916 2.878489,0.91249 4.378716,1.11146 1.701534,0.18034 3.413856,0.23287 5.122789,0.29958 1.518251,0.0106 3.044414,0.22749 4.555787,0.032 -1.466326,3.20697 11.964342,-3.36918 10.592932,-7.56956 -0.18401,-0.56362 -0.45784,-0.81772 -0.82017,-1.26408 -1.2508,-1.26256 -2.92921,-1.60669 -4.618691,-1.86518 -1.65685,-0.21056 -3.327625,-0.2691 -4.99513,-0.33056 -1.561576,0.0287 -3.115058,0.27267 -4.665361,0.45891 -5.823737,1.19024 -11.124168,2.97788 -12.108477,8.40513 -0.343681,1.52885 0.361611,2.62257 1.429718,3.62289 1.129125,0.88952 2.537606,1.08734 3.921948,1.24278 1.505612,0.13143 3.017323,0.17104 4.52727,0.22158 5.122912,0.43466 9.630636,-2.19849 13.515423,-5.97469 0.92809,-0.92351 1.72587,-1.88421 2.1855,-3.12286 0,0 -10.387597,4.32578 -10.387597,4.32578 v 0 c -0.61031,1.0333 -1.465641,1.90561 -2.369871,2.68843 -3.236344,2.48633 -0.301801,0.19339 9.003568,-4.58202 0.16868,-0.0866 -0.299807,0.24108 -0.475723,0.31176 -0.689291,0.27702 -1.437632,0.0533 -2.149207,0.0833 -1.495905,-0.0488 -2.992383,-0.0885 -4.486955,-0.17021 -1.193725,-0.0821 -2.446129,-0.12358 -3.536023,-0.66773 -0.929476,-0.69546 -1.241256,-1.34184 -0.886978,-2.50955 0.182877,-0.58712 0.352501,-1.14643 0.824301,-1.57701 0.143037,-0.13055 0.648809,-0.42055 0.476246,-0.33268 -2.063985,1.05099 -12.883827,6.69516 -8.67077,4.49765 1.483266,-0.35554 3.041096,-0.30429 4.533128,-0.65417 1.650358,0.0524 3.302484,0.0932 4.948296,0.23378 1.443931,0.1525 2.969887,0.26039 4.160187,1.18239 0.07346,0.0783 0.44666,0.41243 0.46691,0.60618 0.04543,0.43468 -0.430795,0.80319 -0.731146,1.01137 3.139503,-1.63229 6.279014,-3.26458 9.418514,-4.89686 -1.28049,0.8209 -2.90006,0.27178 -4.343709,0.33363 -1.689093,-0.0578 -3.379244,-0.1096 -5.064926,-0.23613 -1.424938,-0.13129 -2.859541,-0.30319 -4.195001,-0.85103 -0.812601,-0.35731 -1.671443,-0.49353 -2.242227,-1.23453 0.09099,-0.92593 1.092703,-1.38072 1.709007,-1.93271 0.912886,-0.62829 1.707189,-1.34111 2.321993,-2.27268 0.629808,-0.86848 1.475262,-1.52151 2.244666,-2.26151 0.41863,-0.32707 0.806851,-0.66062 1.253978,-0.94843 0.153321,-0.0987 0.620911,-0.38138 0.458969,-0.29758 -11.017508,5.70103 -12.49278,6.39471 -8.867666,4.67021 1.225919,-0.72817 2.631903,-0.57283 4.007401,-0.50523 1.275471,0.0676 2.670487,0.0569 3.737374,0.85091 1.214868,1.54458 0.811747,3.59538 0.715824,5.42854 -0.13293,1.77645 -0.245038,3.61376 -1.091022,5.22019 -0.537205,0.85832 -1.090766,1.59411 -1.961471,2.13497 -0.180928,0.11239 -0.740509,0.42079 -0.551205,0.32319 3.117689,-1.6077 6.224769,-3.2359 9.337145,-4.85385 -1.17322,0.70157 -2.503757,0.54001 -3.812394,0.37571 -1.357277,-0.19239 -2.649427,-0.54102 -3.842894,-1.2432 -1.485444,-0.48513 -2.936983,-1.11553 -4.311001,-1.85616 -0.983949,-0.39954 -1.807244,-1.02262 -1.470313,-2.18133 0.418745,-1.06464 1.160716,-1.89011 1.809437,-2.82151 0.691167,-1.0722 1.533421,-2.03543 2.389755,-2.97881 2.375163,-2.50079 11.44845,-6.23676 -8.427652,4.06216 -0.201653,0.10451 0.398796,-0.22435 0.615628,-0.29193 0.582662,-0.18157 0.884728,-0.12045 1.484845,-0.10108 1.600593,0.0752 3.226984,0.1671 4.675731,0.92841 2.087087,1.33304 3.328948,3.2784 4.131859,5.60799 0,0 10.020309,-5.05025 10.020309,-5.05025 z" />
      <path
         style="fill:#4d4d4d;stroke-width:0.264583"
         id="path548"
         d="m 89.91316,281.25292 c 0.210116,-1.71921 0.320718,-3.47691 0.949706,-5.11103 0.118404,-0.30761 0.796644,-1.62282 0.960746,-1.94528 0.425099,-0.57009 0.51293,-0.80273 1.104589,-1.18355 0.196496,-0.12649 0.838955,-0.41157 0.633688,-0.29987 -16.58265,9.02251 -11.62025,5.50911 -7.938091,4.54369 1.174338,-0.42096 2.396583,-0.60361 3.636998,-0.66306 4.01122,0.66716 14.061634,-7.24932 7.520514,-6.33574 -3.863764,0.78028 -15.56328,6.82701 -9.346721,7.25038 0.84105,0.0114 1.663026,-0.17357 2.484895,-0.32412 0,0 9.178143,-6.46018 9.178143,-6.46018 v 0 c -0.787116,0.14084 -1.574133,0.28398 -2.347656,0.48962 -4.358746,0.22546 -15.255724,8.54843 -9.171443,5.53631 0.33721,-0.0838 0.658472,-0.23879 1.003028,-0.28346 0.176791,-0.0228 0.383092,0.11582 0.534341,0.0226 3.298572,-2.05604 6.488831,-4.28094 9.733242,-6.42139 0.01924,0.23169 0.05432,0.12616 -0.290986,0.16331 -1.278892,0.062 -2.579707,0.0393 -3.812473,0.44097 -0.199754,0.0712 -0.392842,0.16511 -0.599265,0.21381 -0.236915,0.0559 -0.506003,-0.01 -0.723618,0.0983 -4.606108,2.3079 -9.592372,3.11947 -11.937293,7.50851 -1.053839,2.35339 -1.514832,4.82083 -1.806533,7.37583 0,0 10.234152,-4.61461 10.234152,-4.61461 z" />
      <path
         style="fill:#4d4d4d;stroke-width:0.264583"
         id="path550"
         d="m 93.090712,275.97426 c 0.560966,-0.58479 4.067396,-2.85219 4.080023,-3.49933 0.0048,-0.24595 -0.181401,-0.45734 -0.272103,-0.68602 -0.564965,-0.73973 -0.857481,-0.58661 -1.634395,-0.58411 -0.111562,2.3e-4 -0.227369,-0.0569 -0.333886,-0.0236 -0.07718,0.0241 0.08086,0.15267 0.153811,0.18753 -0.422309,-0.25376 1.144732,-0.85941 1.111058,-0.84087 -8.702782,4.78984 -12.660329,6.33403 -8.785757,4.79836 1.135553,-0.30807 2.320596,-0.28923 3.487108,-0.28401 0,0 9.312659,-6.28602 9.312659,-6.28602 v 0 c -1.21202,-0.0344 -2.427756,-0.0729 -3.637578,0.0331 -4.478523,0.54117 -1.013424,0.0458 -10.995656,5.51484 -0.641254,0.3513 -0.677917,1.39515 -0.656458,2.00409 0.133719,0.38312 0.199068,0.78849 0.56026,1.04493 0.18422,0.13084 1.219383,0.36782 1.377184,0.114 0.09295,-0.1495 -0.02515,-0.35117 -0.03773,-0.52674 -0.05871,-0.13864 -0.0343,-0.36531 -0.176091,-0.41593 -0.117286,-0.0419 -0.178872,0.17347 -0.272347,0.25578 -0.22811,0.20081 -0.455731,0.40253 -0.692203,0.59342 -1.029744,0.83136 -2.119989,1.58622 -3.137699,2.43311 0,0 10.549807,-3.83248 10.549807,-3.83248 z" />
      <path
         style="fill:#4d4d4d;stroke-width:0.264583"
         id="path560"
         d="m 91.843346,276.13628 c 0.758243,-2.29783 1.461193,-4.65555 2.547773,-6.82442 0.581288,-1.17415 0.930804,-2.59709 2.143695,-3.26335 2.735078,-2.28796 10.320576,-5.75797 -8.455052,4.40204 -0.165847,0.0898 0.332998,-0.17895 0.508499,-0.2479 0.441094,-0.17338 0.61466,-0.18477 1.059164,-0.26538 0.980559,-0.019 1.461372,0.80308 1.922424,1.54227 0.730228,0.8767 1.507889,1.64688 2.066047,2.65584 0.479583,1.18074 0.738043,2.52515 0.490528,3.78587 -0.177238,1.15471 -1.258882,1.65592 -2.19448,2.18086 0,0 10.579566,-3.75761 10.579566,-3.75761 v 0 c 1.0343,-0.84478 1.79528,-1.68861 1.84871,-3.09292 0.046,-1.50431 -0.15225,-3.01633 -0.78905,-4.39464 -0.55821,-1.03122 -1.24281,-1.90595 -2.08013,-2.71161 -0.64165,-1.06172 -1.32,-2.0133 -2.507304,-2.50645 -0.552125,-0.0957 -1.346504,-0.20174 -1.879529,0.0728 -5.588512,2.8782 -7.854219,3.24137 -11.135765,6.23669 -0.85469,1.10968 -1.355012,2.41425 -1.917707,3.687 -0.916299,2.27227 -1.694947,4.59488 -2.531716,6.89635 0,0 10.324327,-4.39541 10.324327,-4.39541 z" />
      <path
         style="fill:#999999;stroke-width:0.264583"
         id="path574"
         d="m 94.67349,248.03217 c -0.455697,-2.48073 -1.046196,-4.94153 -1.767194,-7.3591 -0.488046,-1.54485 -1.272987,-2.66959 -2.597248,-3.57612 -0.781276,-0.45159 -1.495033,-0.9963 -2.188636,-1.56978 0,0 -9.732115,5.67415 -9.732115,5.67415 v 0 c 0.730453,0.56557 1.392015,1.23279 2.234878,1.63706 0.29588,0.20509 0.628517,0.35373 0.922909,0.56094 0.763036,0.53709 0.977517,1.53687 1.368237,2.32454 0.731535,2.32937 1.357317,4.71966 1.629643,7.14824 0,0 10.129526,-4.83993 10.129526,-4.83993 z" />
      <circle
         id="path582"
         style="fill:#333333;stroke:#000000;stroke-width:0.264583"
         cx="117.69519"
         cy="259.91745"
         r="0.099906191"
         transform="rotate(2.0953419)" />
      <path
         style="fill:#333333;stroke-width:0.264583"
         id="path590"
         d="m 94.313237,263.96586 c 2.129217,1.13985 4.421024,1.90395 6.644073,2.82866 0.77603,0.35732 1.54625,0.72378 2.32916,1.06588 0,0 9.53406,-5.93022 9.53406,-5.93022 v 0 c -0.80341,-0.30804 -1.59236,-0.64433 -2.34948,-1.05659 -2.20013,-0.879 -4.4752,-1.58596 -6.55885,-2.73211 0,0 -9.598963,5.82438 -9.598963,5.82438 z" />
      <path
         style="fill:#333333;stroke-width:0.264583"
         id="path592"
         d="m 164.05001,285.36083 c 2.26847,0.72322 4.50903,1.5092 6.83176,2.04538 1.66326,0.36577 3.36218,0.49578 5.05843,0.58904 4.64304,0.0174 9.10221,-3.90839 12.60509,-5.76395 0.57618,-0.3052 0.5047,-0.30316 0.95658,-0.76481 0.99449,-1.39266 0.87281,-2.97588 0.78124,-4.59313 -0.13641,-2.53803 -0.65996,-5.13722 -1.67093,-7.47889 -0.13153,-0.27935 -0.26306,-0.55869 -0.3946,-0.83803 0,0 -9.93118,5.20884 -9.93118,5.20884 v 0 c 0.12991,0.26568 0.2598,0.53135 0.3897,0.79702 0.98105,2.20416 1.44942,4.67482 1.50066,7.07827 -0.0121,1.39269 -0.0144,2.78501 -1.25499,3.67514 -3.28384,1.99514 -7.90782,4.28694 8.30282,-4.24382 0.38914,-0.20477 -1.90226,0.96858 -1.95474,0.66746 -1.66801,-0.066 -3.34089,-0.1378 -4.98947,-0.41957 -2.3239,-0.44028 -4.592,-1.11005 -6.77985,-2.01485 0,0 -9.45052,6.0559 -9.45052,6.0559 z" />
      <path
         style="fill:#333333;stroke-width:0.264583"
         id="path594"
         d="m 186.05235,279.6111 c -2.30258,0.67536 -4.60722,1.36827 -6.85095,2.2223 -1.40023,0.61006 -2.87945,0.86022 -4.39197,0.95005 -1.4831,0.047 -2.96673,-0.0225 -4.44853,-0.0807 -1.53541,0.005 -3.05202,0.28388 -4.58235,0.39639 -0.8968,0.0605 -1.79591,0.0526 -2.69407,0.0518 0,0 -9.28458,6.27291 -9.28458,6.27291 v 0 c 0.90411,0.0214 1.80825,0.0404 2.7127,0.0281 1.51757,-0.0591 3.0268,-0.2044 4.52098,-0.48513 1.4968,0.0618 2.99371,0.13288 4.49187,0.14919 1.57125,-0.01 3.14895,-0.0866 4.63407,-0.65857 2.22183,-0.8722 4.47312,-1.69149 6.78593,-2.29115 0,0 9.1069,-6.55558 9.1069,-6.55558 z" />
      <path
         style="fill:#333333;stroke-width:0.264583"
         id="path596"
         d="m 130.45828,272.15305 c -2.50272,-0.0537 -5.00388,-0.16243 -7.50502,-0.26347 -1.70259,-0.0501 -3.40397,-0.17278 -5.1076,-0.17178 -4.45939,0.46123 -8.6194,4.00151 -12.10428,5.88012 -0.50401,0.27169 -0.44806,0.28456 -0.8313,0.71241 0,0 10.57368,-3.88827 10.57368,-3.88827 v 0 c 3.31528,-2.11563 6.91522,-3.76907 -8.51011,4.35026 -0.33298,0.17529 0.64495,-0.39679 0.99718,-0.5292 0.19951,-0.075 0.41718,-0.0876 0.62577,-0.13144 1.65663,-0.33044 3.39043,0.0898 5.06973,0.0196 2.49169,0.0822 4.98403,0.15501 7.47382,0.28456 0,0 9.31813,-6.26261 9.31813,-6.26261 z" />
      <path
         style="fill:#4d4d4d;stroke-width:0.264583"
         id="path612"
         d="m 86.035394,289.99108 c 2.502721,0.0536 5.003876,0.16243 7.505025,0.26348 1.655954,0.008 3.322345,0.26825 4.971815,0.0605 8.186696,-3.69762 10.511076,-2.83326 10.975326,-8.93986 0.0905,-1.58359 0.11398,-3.16993 0.15768,-4.75521 0.25119,-1.76933 -0.12052,-2.89385 -0.74213,-4.48667 -0.5369,-1.17622 -1.65009,-1.8165 -2.70166,-2.4746 -1.0123,-0.93033 -2.13056,-1.57606 -3.43895,-1.98208 -1.391,-0.31276 -2.834464,-0.52511 -4.257731,-0.36252 -6.787179,3.25769 -9.452486,2.22882 -10.714879,6.81059 0,0 10.377109,-4.36576 10.377109,-4.36576 v 0 c 1.913371,-2.94098 12.189861,-5.85535 -8.766184,4.18057 1.154789,-0.76807 2.594845,-0.31552 3.895474,-0.19176 1.267284,0.25114 2.352799,0.69567 3.241115,1.67828 0.83073,0.5533 1.869308,0.96193 2.3598,1.86302 0.579423,1.46292 0.781398,2.43535 0.577136,4.06135 -0.05028,1.5652 -0.08249,3.13284 -0.212868,4.69383 -0.09408,0.74086 -0.141586,1.67652 -0.682287,2.2604 -0.107236,0.11579 -0.519374,0.35573 -0.37876,0.28406 3.151705,-1.6062 6.278675,-3.26053 9.418015,-4.89081 -1.40524,0.87312 -3.22165,0.21719 -4.79104,0.31505 -2.49169,-0.0822 -4.984034,-0.15501 -7.47382,-0.28455 0,0 -9.31812,6.26262 -9.31812,6.26262 z" />
      <path
         style="fill:#333333;stroke-width:0.264583"
         id="path622"
         d="m 121.73488,286.002 c 2.38635,-0.007 4.75076,0.1399 7.10285,0.53619 1.43955,0.32013 2.67294,1.15619 4.05515,1.65196 1.2842,0.33183 2.51369,0.81852 3.80685,1.11686 1.42956,0.38359 2.84949,0.76878 4.31261,1.00562 1.54141,0.21823 3.0983,0.28969 4.65229,0.35067 1.70503,0.0654 3.41029,0.1248 5.11545,0.18695 1.53992,0.0564 3.07984,0.11265 4.61976,0.16902 1.50969,0.0552 3.0194,0.11039 4.52908,0.16568 1.51036,0.0553 3.02073,0.11052 4.5311,0.16582 1.33384,0.0142 2.64,-0.3013 3.96557,-0.42459 1.43848,-0.11654 2.88147,-0.0401 4.32205,-0.0541 1.31651,-0.19216 2.6246,-0.39294 3.95443,-0.46868 1.24475,-0.039 2.44421,-0.3634 3.60433,-0.79077 6.28412,-1.8519 10.8421,-2.91501 11.5354,-8.41024 0.16713,-1.88215 0.23314,-3.77121 0.30101,-5.65893 0.001,-1.61628 -1.06681,-2.59439 -2.17608,-3.59849 -0.87642,-0.71909 -1.57524,-1.56044 -2.19572,-2.50249 -0.81806,-0.92123 -1.34779,-1.99041 -1.85556,-3.09712 -0.49234,-1.04589 -0.25843,-0.51304 -0.70054,-1.59905 0,0 -9.96289,5.14694 -9.96289,5.14694 v 0 c 0.45706,1.13145 0.22393,0.58157 0.69705,1.65063 0.51638,1.15964 1.05264,2.30659 1.91655,3.25785 0.6663,1.03763 1.41442,1.97835 2.36041,2.77526 0.91678,0.74749 1.79945,1.41005 1.74302,2.69247 -0.0614,1.84078 -0.0953,3.69244 -0.38742,5.51427 -0.14626,0.57107 -0.26434,1.1452 -0.69334,1.58444 -0.11283,0.11552 -0.52745,0.36951 -0.38395,0.29543 8.70049,-4.49144 12.42765,-6.864 8.92339,-4.64953 -1.16563,0.317 -2.22604,0.88057 -3.4409,1.05107 -1.34052,0.0204 -2.68741,0.0734 -3.99476,0.40061 -1.40537,0.30164 -2.86978,-0.034 -4.29939,0.0919 -1.31933,0.0551 -2.62563,0.19477 -3.90788,0.52605 -1.51033,-0.0552 -3.02067,-0.11051 -4.53102,-0.16581 -1.50981,-0.0553 -3.01964,-0.1106 -4.52947,-0.16559 -1.54202,-0.0564 -3.08406,-0.11282 -4.62622,-0.16523 -1.70564,-0.0584 -3.41137,-0.11422 -5.11676,-0.17922 -1.5276,-0.0639 -3.05744,-0.1119 -4.57942,-0.26471 -1.45393,-0.17361 -2.89339,-0.43808 -4.2683,-0.95995 -1.29528,-0.21215 -2.48686,-0.68093 -3.74517,-1.00989 -1.48816,-0.39959 -2.7377,-1.23085 -4.1687,-1.76184 -2.37796,-0.40712 -4.74876,-0.6664 -7.16674,-0.67103 0,0 -9.31812,6.26263 -9.31812,6.26263 z" />
      <path
         style="fill:#333333;stroke-width:0.264583"
         id="path624"
         d="m 190.72277,278.94452 c 0.71378,-2.80512 1.1742,-4.99787 0.67231,-7.88397 -0.27145,-1.75 -0.88855,-3.38398 -1.58139,-5.00003 -0.18322,-1.51506 -0.2451,-3.03002 -1.43739,-4.10514 0,0 -9.56887,5.98904 -9.56887,5.98904 v 0 c 0.0523,-0.073 0.0743,-0.25396 0.15682,-0.21878 0.60745,0.25916 0.60592,2.95405 0.85501,3.54346 0.70127,1.50392 1.3006,3.03175 1.53866,4.69082 0.36536,2.56434 -0.18181,5.02401 -0.91668,7.48756 0,0 10.28153,-4.50296 10.28153,-4.50296 z" />
      <circle
         id="path628"
         style="fill:#666666;stroke:#000000;stroke-width:0.264583"
         cx="64.446075"
         cy="321.36728"
         r="0.099906191"
         transform="rotate(1.1849216)" />
      <path
         style="fill:#4d4d4d;stroke-width:0.264583"
         id="path634"
         d="m 73.092345,290.35402 c 2.490397,0.59714 4.978047,1.19982 7.542672,1.32089 1.726208,0.0112 3.45053,-0.0797 5.176472,-0.0997 1.505703,-0.01 3.010909,0.0379 4.51558,0.0873 1.507288,0.0522 3.01436,0.11031 4.52154,0.16546 1.510765,0.0553 3.021529,0.11053 4.532295,0.16584 4.797006,-0.14532 10.900296,-2.0867 13.236006,-6.29318 0.61572,-1.74169 0.57428,-3.61955 0.42765,-5.43452 -0.26359,-1.72402 -1.00275,-3.22617 -2.39924,-4.27729 -1.07294,-0.65001 -2.30819,-0.7913 -3.52971,-0.91072 0,0 -9.351992,6.23178 -9.351992,6.23178 v 0 c 1.081925,0.0587 2.186235,0.0938 3.221062,0.44736 1.27497,0.64417 1.76578,1.96536 1.95116,3.3292 0.0786,1.53104 0.20221,3.39283 -0.84012,4.64046 -3.412085,2.10844 -0.66304,0.39546 9.00228,-4.62415 0.16939,-0.088 -0.33044,0.198 -0.51245,0.25552 -0.60046,0.18968 -1.28011,0.16138 -1.87986,0.36853 -1.51065,-0.0553 -3.02128,-0.11072 -4.53193,-0.16583 -1.50768,-0.0552 -3.01524,-0.11332 -4.522922,-0.16848 -1.513918,-0.0554 -3.02813,-0.11083 -4.543184,-0.12211 -1.734087,-0.002 -3.46573,0.0625 -5.197751,0.14451 -2.512956,0.0335 -4.950243,-0.42843 -7.367015,-1.1173 0,0 -9.450523,6.0559 -9.450523,6.0559 z" />
      <path
         style="fill:#4d4d4d;stroke-width:0.264583"
         id="path636"
         d="m 85.03219,286.09968 c 1.813242,-1.85006 3.428769,-3.88831 5.287364,-5.69183 0.490175,-0.76973 1.127166,-1.42069 1.749094,-2.08105 0,0 -10.483152,4.00343 -10.483152,4.00343 v 0 c -0.58565,0.67397 -1.14016,1.37253 -1.740902,2.03337 -1.763376,1.9139 -3.480739,3.87024 -5.302125,5.73008 0,0 10.489721,-3.994 10.489721,-3.994 z" />
      <circle
         id="path640"
         style="fill:#4d4d4d;stroke:#000000;stroke-width:0.264583"
         cx="88.969009"
         cy="284.86386"
         r="0.099906191"
         transform="rotate(2.0953419)" />
      <circle
         id="path642"
         style="fill:#4d4d4d;stroke:#000000;stroke-width:0.264583"
         cx="88.969009"
         cy="284.86386"
         r="0.099906191"
         transform="rotate(2.0953419)" />
      <path
         style="fill:#4d4d4d;stroke-width:0.264583"
         id="path648"
         d="m 83.504812,284.59572 c -0.923853,-0.92851 -2.798254,-2.42671 -1.409998,-3.69009 0.555982,-0.22856 1.042111,-0.5486 1.578483,-0.81944 0.199555,-0.10076 0.78374,-0.43051 0.586298,-0.32566 -9.71706,5.16035 -12.291709,6.39288 -8.505309,4.56395 1.344079,-0.61613 2.722032,-1.14491 4.066473,-1.76382 4.892426,-1.55797 8.903868,-4.2508 13.596997,-6.73949 0,0 -10.617462,3.65875 -10.617462,3.65875 v 0 c 18.264166,-9.61877 9.798917,-4.58361 6.076831,-3.5585 -1.414313,0.45829 -2.678305,1.28348 -4.121329,1.67953 -4.040026,2.06633 -2.539431,1.29565 -11.123304,5.83908 -0.781899,0.41386 -1.519203,0.94971 -1.950364,1.73679 -0.598147,2.21423 0.620474,3.48905 2.08691,5.00468 0,0 9.735774,-5.58578 9.735774,-5.58578 z" />
      <path
         style="fill:#4d4d4d;stroke-width:0.264583"
         id="path650"
         d="m 84.287897,283.86792 c -1.060519,-1.13136 -3.370495,-3.0796 -2.9973,-4.8225 0.06393,-0.1311 0.09824,-0.2814 0.191787,-0.3933 0.192001,-0.22971 1.070872,-0.53515 0.809007,-0.39005 -15.662816,8.67888 -11.827382,5.98043 -8.098246,4.54928 1.27991,-0.38042 2.57332,-0.73633 3.81094,-1.24136 1.244119,-0.55032 2.456755,-1.06908 3.802217,-1.31043 1.543546,-0.1658 3.005138,-0.6996 4.503546,-1.06876 0.233585,-0.0546 0.467169,-0.10923 0.700757,-0.16385 0,0 9.112247,-6.58406 9.112247,-6.58406 v 0 c -0.215367,0.0857 -0.430736,0.17142 -0.646105,0.25717 -1.518435,0.26652 -2.940976,0.80976 -4.443403,1.13676 -1.38653,0.10921 -2.75732,0.31991 -3.939215,1.11301 -1.271974,0.38547 -2.471521,1.03153 -3.793002,1.26748 -4.622868,1.22793 -11.482307,2.53862 -12.204513,7.60599 0.283032,2.2759 1.971786,3.99861 3.455508,5.6304 0,0 9.735775,-5.58578 9.735775,-5.58578 z" />
      <g
         id="g168-6-9-9"
         transform="matrix(0.83504271,0.03055165,-0.03150911,0.86121241,-30.808094,102.42976)">
        <circle
           style="fill:#999999;stroke-width:0.264583"
           id="path10-2-9-2"
           cx="108.85715"
           cy="167.82143"
           r="49.892857" />
        <ellipse
           style="fill:#4d4d4d;stroke-width:0.264583"
           id="path12-5-9-0"
           cx="73.327385"
           cy="105.83332"
           rx="18.898809"
           ry="73.327377" />
        <ellipse
           style="fill:#4d4d4d;stroke-width:0.264583"
           id="path12-4-1-4-7"
           cx="143.63095"
           cy="105.83334"
           rx="18.898809"
           ry="73.327377" />
        <circle
           style="fill:#999999;stroke-width:0.264583"
           id="path10-3-0-6-3"
           cx="107.34524"
           cy="168.57738"
           r="49.892857" />
        <rect
           style="fill:#4d4d4d;stroke-width:0.255143"
           id="rect62-1-1-1"
           width="30.227684"
           height="8.3154764"
           x="72.581841"
           y="185.20833" />
        <rect
           style="fill:#4d4d4d;stroke-width:0.245814"
           id="rect62-2-2-7-9"
           width="28.057804"
           height="8.3154764"
           x="117.46304"
           y="184.83035" />
        <path
           sodipodi:type="star"
           style="fill:#cccccc;stroke-width:0.264583"
           id="path98-3-9-4"
           sodipodi:sides="5"
           sodipodi:cx="107.34524"
           sodipodi:cy="150.43452"
           sodipodi:r1="18.898809"
           sodipodi:r2="9.4494047"
           sodipodi:arg1="0.64350111"
           sodipodi:arg2="1.2718196"
           inkscape:flatsided="false"
           inkscape:rounded="0"
           inkscape:randomized="0"
           inkscape:transform-center-x="2.1743863"
           inkscape:transform-center-y="-0.092718256"
           transform="matrix(1.2640652,0,0,1.0457311,-25.624065,-9.9652048)"
           d="m 122.46429,161.77381 -12.3358,-2.30907 -8.89551,8.85289 -1.615914,-12.44559 -11.16846,-5.72444 11.337108,-5.38272 1.993026,-12.39078 8.62263,9.11887 12.40021,-1.93348 -6.00803,11.01849 z" />
      </g>
    </g>
    <a
       id="a75"
       transform="matrix(1.007017,0,0,1,-1.2983617,-20.197567)">
      <g
         aria-label="Guðrún Gígja"
         id="text40"
         style="font-size:10.5833px;line-height:1.25;font-family:sans-serif;letter-spacing:0px;white-space:pre;shape-inside:url(#rect42);fill:#4d4d4d"
         transform="matrix(2.3654251,0,0,2.4814249,-57.087277,-357.26144)">
        <path
           d="m 41.469296,247.21203 q -0.630451,0.28938 -1.379756,0.50642 -0.744139,0.21188 -1.441768,0.21188 -0.899167,0 -1.648473,-0.24805 -0.749306,-0.24805 -1.276404,-0.74414 -0.532266,-0.50126 -0.821653,-1.25056 -0.289387,-0.75448 -0.289387,-1.76216 0,-1.84485 1.074867,-2.90938 1.080034,-1.0697 2.96105,-1.0697 0.656288,0 1.338415,0.1602 0.687294,0.15503 1.477941,0.53226 v 1.2144 h -0.09302 q -0.160196,-0.12403 -0.465086,-0.32556 -0.30489,-0.20154 -0.599445,-0.3359 -0.356566,-0.1602 -0.811317,-0.26355 -0.449584,-0.10852 -1.023191,-0.10852 -1.291906,0 -2.04638,0.83199 -0.749306,0.82682 -0.749306,2.24275 0,1.49344 0.78548,2.32543 0.785479,0.82682 2.139397,0.82682 0.496092,0 0.987017,-0.0982 0.496092,-0.0982 0.868161,-0.25322 v -1.88618 h -2.061883 v -0.89917 h 3.074738 z"
           id="path52"
           style="fill:#4d4d4d" />
        <path
           d="m 47.965003,247.78047 h -0.971514 v -0.64079 q -0.490925,0.38757 -0.940508,0.59428 -0.449584,0.2067 -0.992185,0.2067 -0.909502,0 -1.415929,-0.55293 -0.506428,-0.55811 -0.506428,-1.63297 v -3.74653 h 0.971514 v 3.28661 q 0,0.43924 0.04134,0.75447 0.04134,0.31006 0.175699,0.53227 0.139526,0.22737 0.361734,0.33072 0.222208,0.10336 0.645954,0.10336 0.377236,0 0.821652,-0.19637 0.449584,-0.19637 0.837156,-0.50126 v -4.3098 h 0.971514 z"
           id="path54"
           style="fill:#4d4d4d" />
        <path
           d="m 54.796605,244.48869 q 0,1.67431 -0.733803,2.56314 -0.733803,0.88883 -1.979202,0.88883 -1.183386,0 -1.901686,-0.69763 -0.713133,-0.69763 -0.713133,-1.9637 0,-1.16788 0.707965,-1.85001 0.707965,-0.68212 1.751826,-0.68212 0.558103,0 0.956011,0.13952 0.403075,0.13436 0.84749,0.40825 -0.165364,-0.57878 -0.516762,-1.13172 -0.346231,-0.55293 -0.795815,-0.93534 l -1.364253,0.83716 -0.341064,-0.50126 1.224728,-0.7338 q -0.434081,-0.34623 -0.80615,-0.55294 -0.372069,-0.21187 -0.852658,-0.45475 v -0.0827 h 1.52445 q 0.180867,0.12919 0.43408,0.30489 0.253214,0.17053 0.444416,0.30489 l 1.085202,-0.66146 0.341063,0.50126 -0.961178,0.56327 q 0.790646,0.75964 1.21956,1.68465 0.428913,0.91984 0.428913,2.05155 z m -1.498612,2.12389 q 0.253213,-0.30489 0.387572,-0.73897 0.134358,-0.43925 0.134358,-1.21439 0,-0.16537 -0.01034,-0.30489 -0.0052,-0.14469 -0.0155,-0.29972 -0.387572,-0.23255 -0.816485,-0.34107 -0.423745,-0.11368 -0.868161,-0.11368 -0.759642,0 -1.19889,0.45475 -0.43408,0.44958 -0.43408,1.23506 0,0.93017 0.43408,1.37976 0.439248,0.44958 1.178219,0.44958 0.341063,0 0.656289,-0.11369 0.320393,-0.11369 0.552936,-0.39274 z"
           id="path56"
           style="fill:#4d4d4d" />
        <path
           d="m 59.953896,243.06759 h -0.05168 q -0.21704,-0.0517 -0.423745,-0.0724 -0.201538,-0.0258 -0.48059,-0.0258 -0.449583,0 -0.868161,0.20154 -0.418578,0.19637 -0.80615,0.5116 v 4.09793 h -0.97151 v -5.77224 h 0.971514 v 0.85265 q 0.578774,-0.46508 1.018023,-0.65628 0.444416,-0.19637 0.904334,-0.19637 0.253214,0 0.366902,0.0155 0.113688,0.0103 0.341063,0.0465 z"
           id="path58"
           style="fill:#4d4d4d" />
        <path
           d="m 65.653789,247.78047 h -0.971514 v -0.64079 q -0.490924,0.38757 -0.940508,0.59428 -0.449583,0.2067 -0.992184,0.2067 -0.909503,0 -1.41593,-0.55293 -0.506427,-0.55811 -0.506427,-1.63297 v -3.74653 h 0.971513 v 3.28661 q 0,0.43924 0.04134,0.75447 0.04134,0.31006 0.1757,0.53227 0.139526,0.22737 0.361734,0.33072 0.222208,0.10336 0.645953,0.10336 0.377237,0 0.821653,-0.19637 0.449583,-0.19637 0.837155,-0.50126 v -4.3098 h 0.971514 z m -0.857826,-8.66095 -1.410762,1.9327 h -0.769977 l 0.925006,-1.9327 z"
           id="path60"
           style="fill:#4d4d4d" />
        <path
           d="m 72.392373,247.78047 h -0.971514 v -3.28662 q 0,-0.3979 -0.04651,-0.74413 -0.04651,-0.3514 -0.170531,-0.54777 -0.129191,-0.21704 -0.372069,-0.3204 -0.242879,-0.10852 -0.630451,-0.10852 -0.397907,0 -0.831988,0.19637 -0.434081,0.19637 -0.831988,0.50126 v 4.30981 h -0.971514 v -5.77224 h 0.971514 v 0.64078 q 0.454751,-0.37724 0.940508,-0.58911 0.485757,-0.21187 0.997352,-0.21187 0.935341,0 1.426265,0.56327 0.490925,0.56327 0.490925,1.62264 z"
           id="path62"
           style="fill:#4d4d4d" />
        <path
           d="m 84.479451,247.21203 q -0.630451,0.28938 -1.379757,0.50642 -0.744138,0.21188 -1.441768,0.21188 -0.899167,0 -1.648473,-0.24805 -0.749305,-0.24805 -1.276403,-0.74414 -0.532266,-0.50126 -0.821653,-1.25056 -0.289387,-0.75448 -0.289387,-1.76216 0,-1.84485 1.074866,-2.90938 1.080034,-1.0697 2.96105,-1.0697 0.656289,0 1.338416,0.1602 0.687294,0.15503 1.477941,0.53226 v 1.2144 h -0.09302 q -0.160197,-0.12403 -0.465087,-0.32556 -0.30489,-0.20154 -0.599444,-0.3359 -0.356567,-0.1602 -0.811318,-0.26355 -0.449583,-0.10852 -1.02319,-0.10852 -1.291907,0 -2.04638,0.83199 -0.749306,0.82682 -0.749306,2.24275 0,1.49344 0.785479,2.32543 0.78548,0.82682 2.139398,0.82682 0.496092,0 0.987017,-0.0982 0.496092,-0.0982 0.868161,-0.25322 v -1.88618 H 81.40471 v -0.89917 h 3.074738 z"
           id="path64"
           style="fill:#4d4d4d" />
        <path
           d="m 87.171785,247.78047 h -0.971514 v -5.77224 h 0.971514 z m 1.069699,-8.66095 -1.410762,1.9327 h -0.769977 l 0.925005,-1.9327 z"
           id="path66"
           style="fill:#4d4d4d" />
        <path
           d="m 93.776011,247.12418 q 0,1.4676 -0.666624,2.1549 -0.666624,0.68729 -2.051548,0.68729 -0.459918,0 -0.899167,-0.0672 -0.43408,-0.062 -0.857826,-0.18086 v -0.99219 h 0.05168 q 0.237711,0.093 0.754474,0.22738 0.516763,0.13952 1.033525,0.13952 0.496093,0 0.821653,-0.11885 0.32556,-0.11886 0.506427,-0.33073 0.180867,-0.20154 0.258382,-0.48576 0.07751,-0.28422 0.07751,-0.63562 v -0.52709 q -0.439248,0.35139 -0.842323,0.52709 -0.397907,0.17054 -1.018022,0.17054 -1.033526,0 -1.643306,-0.74414 -0.604612,-0.74931 -0.604612,-2.10839 0,-0.74414 0.206705,-1.28158 0.211873,-0.5426 0.573607,-0.93534 0.335895,-0.3669 0.816485,-0.56844 0.480589,-0.2067 0.956011,-0.2067 0.501259,0 0.837155,0.10335 0.341063,0.0982 0.7183,0.30489 l 0.06201,-0.24804 h 0.909502 z M 92.804497,246.194 v -3.14708 q -0.387572,-0.1757 -0.723468,-0.24805 -0.330728,-0.0775 -0.661456,-0.0775 -0.800982,0 -1.260901,0.53743 -0.459919,0.53743 -0.459919,1.56062 0,0.97152 0.341064,1.47278 0.341063,0.50126 1.13171,0.50126 0.423746,0 0.847491,-0.1602 0.428913,-0.16536 0.785479,-0.43925 z"
           id="path68"
           style="fill:#4d4d4d" />
        <path
           d="m 97.48637,241.04188 h -1.095537 v -1.00769 h 1.095537 z m -0.06201,6.87811 q 0,1.01286 -0.516763,1.52962 -0.516763,0.51676 -1.384924,0.51676 -0.206705,0 -0.547768,-0.0413 -0.335896,-0.0413 -0.563272,-0.10335 v -0.92501 h 0.05168 q 0.144693,0.0568 0.387572,0.12919 0.248046,0.0724 0.480589,0.0724 0.372069,0 0.599445,-0.10335 0.227375,-0.10336 0.341063,-0.31006 0.113688,-0.20671 0.144693,-0.50126 0.03617,-0.28939 0.03617,-0.70796 v -4.65087 h -1.204057 v -0.81648 h 2.175571 z"
           id="path70"
           style="fill:#4d4d4d" />
        <path
           d="m 103.81671,247.78047 h -0.96635 v -0.61495 q -0.12919,0.0879 -0.3514,0.24804 -0.21704,0.15503 -0.42374,0.24805 -0.24288,0.11886 -0.5581,0.19637 -0.31523,0.0827 -0.73898,0.0827 -0.780307,0 -1.322908,-0.51676 -0.5426,-0.51676 -0.5426,-1.31775 0,-0.65628 0.279051,-1.05936 0.28422,-0.40824 0.80615,-0.64079 0.527097,-0.23254 1.266067,-0.31522 0.73897,-0.0827 1.58646,-0.12402 v -0.14986 q 0,-0.33073 -0.11885,-0.54777 -0.11369,-0.21704 -0.33073,-0.34107 -0.20671,-0.11885 -0.49609,-0.16019 -0.28939,-0.0413 -0.60461,-0.0413 -0.38241,0 -0.85266,0.10335 -0.470257,0.0982 -0.971517,0.28939 h -0.05168 v -0.98702 q 0.284219,-0.0775 0.821657,-0.17053 0.53743,-0.093 1.05936,-0.093 0.60978,0 1.05937,0.10335 0.45475,0.0982 0.78548,0.34107 0.32556,0.23771 0.49609,0.61494 0.17053,0.37724 0.17053,0.93534 z m -0.96635,-1.4211 v -1.60713 q -0.44441,0.0258 -1.04903,0.0775 -0.59944,0.0517 -0.95084,0.14986 -0.41858,0.11886 -0.67696,0.37207 -0.258379,0.24805 -0.258379,0.68729 0,0.4961 0.299719,0.74931 0.29973,0.24805 0.91467,0.24805 0.5116,0 0.93534,-0.19637 0.42375,-0.20154 0.78548,-0.48059 z"
           id="path72"
           style="fill:#4d4d4d" />
      </g>
    </a>
  </g>
</svg>
